<svg width="222" height="198" viewBox="0 0 222 198" fill="none" xmlns="http://www.w3.org/2000/svg">
<path d="M115.234 79.1607C94.7735 77.7247 74.56 84.3278 58.8929 97.5657C43.2258 110.804 33.3416 129.631 31.3425 150.045C29.3435 170.458 35.3874 190.846 48.1887 206.871C60.99 222.897 79.5386 233.296 99.8891 235.857C120.24 238.417 140.786 232.937 157.158 220.582C173.53 208.227 184.437 189.972 187.557 169.7C190.677 149.428 185.764 128.738 173.865 112.032C161.966 95.3253 144.018 83.9206 123.839 80.2434L122.235 89.0459C140.121 92.3054 156.03 102.414 166.577 117.223C177.125 132.031 181.479 150.37 178.713 168.339C175.948 186.308 166.281 202.489 151.769 213.44C137.257 224.391 119.044 229.249 101.006 226.979C82.9677 224.71 66.5265 215.492 55.1796 201.287C43.8327 187.082 38.4755 169.011 40.2474 150.917C42.0193 132.823 50.7806 116.134 64.6677 104.4C78.5547 92.6663 96.4717 86.8134 114.608 88.0862L115.234 79.1607Z" fill="#FFE2C8"/>
<path d="M84.7488 207.845C71.2599 193.811 62.4532 175.941 59.5414 156.695C56.6296 137.449 59.7558 117.773 68.4897 100.378C77.2236 82.982 91.1356 68.7217 108.31 59.5602C125.484 50.3988 145.077 46.7869 164.389 49.2219C183.701 51.6568 201.784 60.0188 216.146 73.1566C230.509 86.2943 240.446 103.562 244.589 122.581C248.731 141.6 246.876 161.436 239.278 179.357C231.68 197.278 218.713 212.403 202.163 222.649L152.614 142.614L84.7488 207.845Z" fill="#F1A25B" fill-opacity="0.76"/>
<path d="M299.519 196.281C286.265 212.087 268.724 223.725 249.009 229.794C229.294 235.863 208.245 236.104 188.397 230.487C168.548 224.871 150.746 213.637 137.134 198.138C123.522 182.639 114.68 163.536 111.673 143.128C108.666 122.721 111.621 101.879 120.184 83.1125C128.747 64.3459 142.552 48.4545 159.937 37.3515C177.322 26.2486 197.545 20.4075 218.173 20.5314C238.8 20.6554 258.952 26.7393 276.202 38.0504L261.127 61.0418C248.309 52.637 233.335 48.1165 218.008 48.0243C202.68 47.9322 187.653 52.2724 174.735 60.5225C161.817 68.7726 151.56 80.5808 145.197 94.5253C138.834 108.47 136.638 123.956 138.872 139.12C141.107 154.284 147.677 168.479 157.792 179.995C167.906 191.512 181.134 199.859 195.882 204.032C210.631 208.206 226.271 208.027 240.921 203.517C255.57 199.008 268.603 190.36 278.452 178.616L299.519 196.281Z" fill="#FFE2C8"/>
</svg>
