<svg width="310" height="186" viewBox="0 0 310 186" fill="none" xmlns="http://www.w3.org/2000/svg">
<path d="M-52.5783 86.1557C-61.1528 64.3496 -62.3323 40.3318 -55.9359 17.7905C-49.5394 -4.75087 -35.9206 -24.5694 -17.1708 -38.6218C1.57909 -52.6742 24.4233 -60.1835 47.8539 -59.9965C71.2844 -59.8095 94.0059 -51.9366 112.529 -37.5868C131.052 -23.2369 144.353 -3.20354 150.389 19.437C156.425 42.0776 154.862 66.0735 145.941 87.74C137.019 109.406 121.233 127.545 101.005 139.372C80.7767 151.198 57.2261 156.057 33.9692 153.204L47 47.0001L-52.5783 86.1557Z" fill="#F1A25B" fill-opacity="0.76"/>
<path d="M100.724 -114.327C119.987 -129.876 144.045 -138.265 168.799 -138.064C193.553 -137.864 217.472 -129.086 236.48 -113.227C255.488 -97.3685 268.409 -75.4095 273.042 -51.0918C277.675 -26.7742 273.732 -1.60248 261.886 20.1343C250.041 41.871 231.024 58.828 208.078 68.1158C185.131 77.4036 159.674 78.4477 136.044 71.0701C112.414 63.6925 92.0728 48.3497 78.4867 27.656C64.9007 6.96227 58.9103 -17.802 61.5361 -42.4174L100.219 -38.2909C98.548 -22.6251 102.36 -6.86444 111.007 6.30558C119.653 19.4756 132.599 29.2401 147.638 33.9354C162.677 38.6307 178.878 37.9662 193.482 32.0552C208.086 26.1442 220.188 15.3524 227.727 1.51856C235.266 -12.3153 237.775 -28.3352 234.827 -43.8115C231.879 -59.2879 223.655 -73.2632 211.558 -83.3562C199.461 -93.4492 184.238 -99.0354 168.484 -99.1629C152.73 -99.2905 137.419 -93.9516 125.16 -84.0558L100.724 -114.327Z" fill="#FFE2C8"/>
<path d="M-84.6694 -55.5528C-71.1386 -76.2827 -50.8385 -91.6796 -27.2281 -99.1201C-3.61776 -106.561 21.8421 -105.584 44.8134 -96.3577C67.7846 -87.1311 86.846 -70.2249 98.7497 -48.5197C110.653 -26.8146 114.663 -1.65351 110.095 22.6764C105.527 47.0063 92.6645 68.9997 73.6987 84.9091C54.7329 100.819 30.8375 109.66 6.08392 109.926C-18.6697 110.193 -42.7498 101.868 -62.0536 86.3702C-81.3574 70.8726 -94.6904 49.1611 -99.7809 24.9351L-91.0134 23.0929C-86.3492 45.2905 -74.1325 65.1841 -56.445 79.384C-38.7575 93.584 -16.6935 101.212 5.98751 100.968C28.6685 100.724 50.5632 92.6227 67.941 78.0454C85.3188 63.468 97.1045 43.3161 101.29 21.0233C105.475 -1.26955 101.802 -24.324 90.8946 -44.2117C79.9875 -64.0995 62.5221 -79.5902 41.4742 -88.0443C20.4263 -96.4985 -2.90188 -97.393 -24.5354 -90.5754C-46.1689 -83.7579 -64.7692 -69.6501 -77.1672 -50.656L-84.6694 -55.5528Z" fill="#FFE2C8"/>
</svg>
