<svg width="35" height="31" viewBox="0 0 35 31" fill="none" xmlns="http://www.w3.org/2000/svg">
<path d="M8.6625 11.5C7.7625 11.5 7.0125 11.1766 6.4125 10.5297C5.8125 9.88281 5.575 9.12813 5.7 8.26562L6.1875 4.74375C6.3875 3.37813 7.0375 2.24633 8.1375 1.34838C9.2375 0.449459 10.525 0 12 0C13.475 0 14.7625 0.449459 15.8625 1.34838C16.9625 2.24633 17.6125 3.37813 17.8125 4.74375L18.3 8.26562C18.425 9.12813 18.1875 9.88281 17.5875 10.5297C16.9875 11.1766 16.2375 11.5 15.3375 11.5H8.6625ZM3 23C2.175 23 1.469 22.7187 0.882 22.1562C0.294 21.5927 0 20.9156 0 20.125V18.975C0 18.1604 0.219 17.4115 0.657 16.7282C1.094 16.0459 1.675 15.525 2.4 15.1656C3.95 14.4229 5.525 13.8656 7.125 13.4938C8.725 13.1229 10.35 12.9375 12 12.9375C13.65 12.9375 15.275 13.1229 16.875 13.4938C18.475 13.8656 20.05 14.4229 21.6 15.1656C22.325 15.525 22.906 16.0459 23.343 16.7282C23.781 17.4115 24 18.1604 24 18.975V20.125C24 20.9156 23.7065 21.5927 23.1195 22.1562C22.5315 22.7187 21.825 23 21 23H3Z" fill="#F1A25B"/>
<path d="M11.3718 11.3871L11.3714 11.3881C11.1213 12.0083 11 12.661 11 13.3333C11 14.8983 11.6402 16.2427 12.816 17.2878C13.1097 17.5489 13.4196 17.7764 13.7442 17.9706C12.4065 18.3214 11.0885 18.7858 9.79079 19.3626L9.78207 19.3665L9.7734 19.3705C8.8135 19.8118 8.01926 20.4673 7.42357 21.3304C6.81545 22.2091 6.5 23.2001 6.5 24.2667V25.3333C6.5 26.5291 7.00351 27.5545 7.88545 28.3384C8.76181 29.1174 9.82789 29.5 11 29.5H29C30.1721 29.5 31.2382 29.1175 32.1151 28.3393L32.117 28.3376C32.9978 27.5534 33.5 26.5282 33.5 25.3333V24.2667C33.5 23.2005 33.1848 22.2099 32.5772 21.3315C31.9814 20.4678 31.1869 19.812 30.2266 19.3705L30.2179 19.3665L30.2092 19.3626C28.9115 18.7858 27.5935 18.3214 26.2558 17.9706C26.5804 17.7764 26.8903 17.5489 27.184 17.2878C28.3598 16.2427 29 14.8983 29 13.3333C29 12.661 28.8787 12.0083 28.6286 11.3881L28.6282 11.3871C28.4941 11.0556 28.326 10.7436 28.1266 10.4512C28.1329 10.4233 28.1388 10.3953 28.1446 10.3673C28.2144 10.0259 28.25 9.68082 28.25 9.33333C28.25 8.15981 27.8855 7.08359 27.1645 6.15976L27.163 6.15786C26.5379 5.3596 25.7436 4.75909 24.811 4.35409C24.2235 3.8082 23.5511 3.37464 22.8027 3.05432C21.925 2.6787 20.9846 2.5 20 2.5C19.0154 2.5 18.075 2.6787 17.1973 3.05432C16.4489 3.37464 15.7765 3.8082 15.189 4.35409C14.2564 4.75909 13.4621 5.3596 12.837 6.15786L12.8355 6.15976C12.1145 7.08359 11.75 8.15981 11.75 9.33333C11.75 9.68082 11.7856 10.026 11.8554 10.3673C11.8612 10.3953 11.8671 10.4233 11.8734 10.4512C11.674 10.7436 11.5059 11.0556 11.3718 11.3871Z" fill="#F1A25B" stroke="white" stroke-width="3"/>
</svg>
