<svg width="32" height="32" viewBox="0 0 32 32" fill="none" xmlns="http://www.w3.org/2000/svg">
<path d="M24.8889 14.7049C25.4933 14.7049 26.08 14.7735 26.6667 14.8594V6.58353L13.3333 0.968994L0 6.58353V15.0139C0 22.809 5.68889 30.1062 13.3333 31.8747C14.3111 31.6515 15.2533 31.3253 16.1778 30.9304C14.9511 29.2477 14.2222 27.2045 14.2222 25.0068C14.2222 19.3235 19.0044 14.7049 24.8889 14.7049Z" fill="#F1A25B"/>
<path d="M24.8889 18.1389C20.9601 18.1389 17.7778 21.2123 17.7778 25.0068C17.7778 28.8014 20.9601 31.8748 24.8889 31.8748C28.8178 31.8748 32.0001 28.8014 32.0001 25.0068C32.0001 21.2123 28.8178 18.1389 24.8889 18.1389ZM24.8889 20.5084C25.9912 20.5084 26.8801 21.384 26.8801 22.4314C26.8801 23.4787 25.9734 24.3544 24.8889 24.3544C23.8045 24.3544 22.8978 23.4787 22.8978 22.4314C22.8978 21.384 23.7867 20.5084 24.8889 20.5084ZM24.8889 29.7286C23.2356 29.7286 21.7956 28.9387 20.9067 27.7197C20.9956 26.4835 23.5912 25.8653 24.8889 25.8653C26.1867 25.8653 28.7823 26.4835 28.8712 27.7197C27.9823 28.9387 26.5423 29.7286 24.8889 29.7286Z" fill="#F1A25B"/>
</svg>
