<svg width="32" height="28" viewBox="0 0 32 28" fill="none" xmlns="http://www.w3.org/2000/svg">
<path d="M32 2.8V14.175C31.0303 13.2183 29.921 12.4833 28.672 11.97C27.424 11.4567 26.1091 11.2 24.7273 11.2C24.4848 11.2 24.2424 11.2056 24 11.2168C23.7576 11.2289 23.5152 11.2583 23.2727 11.305C23.2727 10.7683 23.0725 10.2494 22.672 9.7482C22.2725 9.24607 21.6121 8.66833 20.6909 8.015L13.0909 2.73C13.0909 1.98333 13.376 1.34167 13.9462 0.805C14.5154 0.268333 15.2 0 16 0H29.0909C29.8909 0 30.576 0.273933 31.1462 0.8218C31.7154 1.3706 32 2.03 32 2.8ZM23.2727 8.4H26.1818V5.6H23.2727V8.4ZM24.7273 28C22.7152 28 21.0002 27.3177 19.5825 25.9532C18.1639 24.5877 17.4545 22.9367 17.4545 21C17.4545 19.0633 18.1639 17.4123 19.5825 16.0468C21.0002 14.6823 22.7152 14 24.7273 14C26.7394 14 28.4548 14.6823 29.8735 16.0468C31.2912 17.4123 32 19.0633 32 21C32 22.9367 31.2912 24.5877 29.8735 25.9532C28.4548 27.3177 26.7394 28 24.7273 28ZM24 21.7V24.5C24 24.6867 24.0727 24.85 24.2182 24.99C24.3636 25.13 24.5333 25.2 24.7273 25.2C24.9212 25.2 25.0909 25.13 25.2364 24.99C25.3818 24.85 25.4545 24.6867 25.4545 24.5V21.7H28.3636C28.5576 21.7 28.7273 21.63 28.8727 21.49C29.0182 21.35 29.0909 21.1867 29.0909 21C29.0909 20.8133 29.0182 20.65 28.8727 20.51C28.7273 20.37 28.5576 20.3 28.3636 20.3H25.4545V17.5C25.4545 17.3133 25.3818 17.15 25.2364 17.01C25.0909 16.87 24.9212 16.8 24.7273 16.8C24.5333 16.8 24.3636 16.87 24.2182 17.01C24.0727 17.15 24 17.3133 24 17.5V20.3H21.0909C20.897 20.3 20.7273 20.37 20.5818 20.51C20.4364 20.65 20.3636 20.8133 20.3636 21C20.3636 21.1867 20.4364 21.35 20.5818 21.49C20.7273 21.63 20.897 21.7 21.0909 21.7H24ZM0 23.8V12.635C0 12.1683 0.109091 11.7367 0.327273 11.34C0.545455 10.9433 0.848485 10.6167 1.23636 10.36L8.50909 5.355C9.01818 5.005 9.58158 4.83 10.1993 4.83C10.8179 4.83 11.3818 5.005 11.8909 5.355L19.1636 10.36C19.4788 10.57 19.7396 10.8323 19.9462 11.1468C20.1518 11.4623 20.2909 11.795 20.3636 12.145C18.5939 12.9617 17.1821 14.1689 16.128 15.7668C15.073 17.3656 14.5455 19.11 14.5455 21C14.5455 21.7233 14.6245 22.4411 14.7825 23.1532C14.9396 23.8644 15.1879 24.5467 15.5273 25.2H13.0909V16.8H7.27273V25.2H1.45455C1.04242 25.2 0.697212 25.0656 0.418909 24.7968C0.139636 24.5289 0 24.1967 0 23.8Z" fill="#F1A25B"/>
</svg>
