<svg width="28" height="25" viewBox="0 0 28 25" fill="none" xmlns="http://www.w3.org/2000/svg">
<path d="M2.69066 25C1.95073 25 1.31753 24.6943 0.791054 24.0828C0.263685 23.4703 0 22.7344 0 21.875V3.125C0 2.26562 0.263685 1.53021 0.791054 0.91875C1.31753 0.30625 1.95073 0 2.69066 0H9.65275C10.0115 0 10.3537 0.0781251 10.6792 0.234375C11.0039 0.390625 11.2896 0.611979 11.5362 0.898437L13.4533 3.125H24.2159C24.9559 3.125 25.5895 3.43125 26.1169 4.04375C26.6434 4.65521 26.9066 5.39062 26.9066 6.25H5.38132C4.64139 6.25 4.00819 6.55573 3.48171 7.16719C2.95435 7.77969 2.69066 8.51562 2.69066 9.375V21.875L5.34769 11.6016C5.52707 10.9245 5.85802 10.3839 6.34054 9.97969C6.82217 9.57656 7.35447 9.375 7.93745 9.375H25.2922C26.2115 9.375 26.9349 9.79792 27.4622 10.6438C27.9887 11.4906 28.1286 12.4089 27.882 13.3984L25.4604 22.7734C25.281 23.4505 24.9505 23.9911 24.4689 24.3953C23.9863 24.7984 23.4536 25 22.8706 25H2.69066Z" fill="#F1A25B"/>
</svg>
