<?xml version="1.0" encoding="utf-8"?>
<!-- Generator: Adobe Illustrator 27.5.0, SVG Export Plug-In . SVG Version: 6.00 Build 0)  -->
<svg version="1.1" xmlns="http://www.w3.org/2000/svg" xmlns:xlink="http://www.w3.org/1999/xlink" x="0px" y="0px"
	 viewBox="0 0 1200 1200" style="enable-background:new 0 0 1200 1200;" xml:space="preserve">
<g id="Background">
	<rect style="fill:#fff;" width="1200" height="1200"/>
</g>
<g id="Graphic_Element">
	<g>
		<path d="M174.843,523.598c0.32-1.421-0.304-3.242,1.952-3.905c-0.563-0.622-0.978-1.08-1.681-1.855
			c0.962-0.13,1.547-0.209,2.226-0.301c0.667-0.754-1.031-2.433,0.933-2.795c0.059-0.011,0.149-0.762-0.018-0.942
			c-0.831-0.895-0.145-1.18,0.417-1.826c0.915-1.053,2.764-1.99,1.272-3.893l1.372-2.231c0.411-0.944,1.003-1.853,1.191-2.839
			c0.281-1.472,0.344-3.042,1.502-4.096c0.997-0.907-1.665-0.915-0.317-1.95c0.451-0.346,0.176-1.637,0.581-2.621
			c0.163,0.507,0.326,1.014,0.52,1.619c1.404-1.573,1.404-1.573,0.437-3.434c0.978-1.213,2.061-2.343,2.886-3.637
			c0.957-1.5,0.79-2.638-0.244-3.995c0.504-0.066,0.99-0.129,1.215-0.159c0.738-1.347,1.277-2.633,2.078-3.726
			c1.548-2.114,1.585-2.667-0.253-4.55c3.232-2.629,4.917-6.178,6.083-10.076c0.55-1.839,0.736-3.801,2.377-5.281
			c0.801-0.722,0.908-2.182-0.213-3.393c0.492,0,0.822,0,1.475,0c0.023-2.813,2.339-4.368,4.306-6.661
			c-1.153-0.129-1.661-0.186-2.161-0.242c-0.303-2.121,2.568-0.488,2.572-2.222c1.465-0.337,1.905-1.681,2.263-2.779
			c0.387-1.189,1.993-2.415,0.051-3.9c0.929-0.247,1.553-0.414,2.179-0.581c-0.73-2.528-0.53-2.891,1.878-3.046
			c0-1.094,0-2.207,0-3.472c0.668-0.221,1.385-0.459,2.089-0.692c1.081,1.218,1.496,2.203,0.328,3.716
			c-0.968,1.255-1.304,2.993-1.949,4.505c-0.405,0.948-0.729,1.972-1.324,2.791c-2.174,2.988-4.048,6.119-5.376,9.586
			c-0.274,0.716-1.166,1.174-1.571,1.869c-0.314,0.539,0.17,1.268-0.921,1.724c-0.794,0.332-1.199,1.738-1.648,2.724
			c-1.1,2.411-1.599,5.119-3.586,7.087c-0.199,0.197-0.399,0.538-0.376,0.793c0.425,4.841-2.611,8.394-4.683,12.247
			c-2.3,4.277-4.108,8.699-5.542,13.331c-1.163,3.755-1.908,7.687-4.17,11.064c-0.457,0.682-0.26,1.795-0.389,2.707
			c-0.072,0.511-0.1,1.059-0.314,1.513c-0.472,1.003-2.137,1.488-1.292,3.055c-2.236,2.81-1.172,6.475-2.43,9.443
			c-0.623,1.469-0.021,3.347-1.546,4.461c-0.197,0.144-0.377,0.563-0.312,0.779c0.905,2.998-1.151,5.565-1.212,8.423
			c-0.012,0.562-0.341,1.13-0.577,1.673c-0.99,2.281-2.037,4.539-2.988,6.836c-0.598,1.444-1.2,1.906-3.02,1.987
			c-0.593,1.74-1.185,3.477-1.778,5.213c-0.097,0.284-0.36,0.62-0.281,0.837c1.089,3.01-1.664,5.585-0.942,8.539
			c-1.886,1.358-1.072,3.945-2.502,5.513c-0.056,0.061-0.035,0.193-0.056,0.335c0.414,0.202,0.84,0.41,1.507,0.735
			c-0.599,1.342-1.202,2.667-1.78,4.003c-0.233,0.54-0.61,1.119-0.575,1.658c0.135,2.129-1.056,3.845-1.618,5.753
			c-0.443,1.505-0.947,3.007-1.209,4.547c-0.661,3.896-0.958,7.824-0.785,11.785c0.038,0.881-0.201,1.782-0.369,2.664
			c-0.669,3.516-1.109,7.024,0.155,10.509c0.068,0.187,0.271,0.426,0.213,0.544c-1.16,2.377,0.552,4.707,0.055,7.128
			c-0.474,2.304-0.495,4.707-0.638,7.071c-0.065,1.076,0.102,2.164,0.076,3.245c-0.025,1.015-0.167,2.026-0.26,3.072
			c0.363,0.439,1.359,1.111,1.29,1.646c-0.52,4.048,0.696,8.209-0.8,12.179c0.99,2.686-0.159,5.69,1.301,8.35
			c0.379,0.69,0.019,1.755,0.115,2.635c0.393,3.571,0.063,7.263,1.736,10.627c0.13,0.261,0.063,0.713,0.249,0.838
			c3.043,2.053,1.821,5.236,1.286,7.56c-0.688,2.991,0.532,5.358,0.95,7.989c0.087,0.549,0.583,1.144,0.456,1.596
			c-0.561,2.002-0.112,3.88,0.66,5.656c0.485,1.115,0.535,2.195,0.691,3.344c0.219,1.608,1.064,3.125,1.581,4.7
			c0.322,0.979,1.041,2.231,0.704,2.949c-1.133,2.415,0.272,3.495,2.004,4.599c-0.151,0.897-0.295,1.75-0.464,2.748
			c1.657,0.463,2.401,1.385,2.695,3.25c0.537,3.405,2.108,6.598,2.32,10.142c0.038,0.627-0.266,2.431,1.542,2.382
			c0.117-0.003,0.292,0.631,0.372,0.984c0.614,2.7,1.212,5.404,1.815,8.107c2.147,0.605,0.768,3.115,1.617,3.651
			c1.52,0.958,0.646,2.114,1.025,3.088c0.48,1.234,1.1,2.497,1.966,3.476c0.884,1,1.891,1.748,1.107,3.261
			c-0.049,0.094,0.356,0.46,0.588,0.653c0.211,0.175,0.701,0.364,0.683,0.415c-0.602,1.76,1.535,2.521,1.463,4.129
			c-0.048,1.054,0.174,2.038,1.258,2.815c0.609,0.437,0.579,2.342,0.98,2.389c1.672,0.199,0.859,1.505,1.299,2.106
			c0.557,0.762,1.189,1.616,1.821,2.231c1.738,1.693,1.586,3.433,0.829,5.371c3.709,0.534,3.616,1.783,3.273,5.551
			c0.507-0.163,0.911-0.292,1.104-0.354c1.412,2.51,3.048,4.881,4.117,7.486c0.905,2.204,2.657,4.22,2.052,6.735
			c2.329,1.894,4.546,3.578,5.346,6.524c0.288,1.061,0.273,2.742,2.301,2.419c0.199-0.032,0.584,1.093,0.88,1.683
			c0.643,1.282,0.284,3.325,2.571,3.366c0.157,0.003,0.415,0.19,0.45,0.334c0.539,2.229,2.613,3.511,3.42,5.469
			c0.371,0.9,0.808,1.255,1.453,1.776c0.704,0.569,1.156,1.284,1.42,2.382c0.377,1.569,1.601,3.073,2.799,4.268
			c1.213,1.21,2.359,2.366,2.963,3.995c0.124,0.335,0.394,0.644,0.661,0.895c0.91,0.853,1.849,1.675,2.777,2.509
			c-1.168,1.426,2.11,1.501,0.893,2.942c0.238,0.123,0.484,0.235,0.713,0.372c0.792,0.476,2.064,0.803,2.28,1.47
			c0.79,2.443,3.684,3.221,4.29,5.791c0.118,0.5,1.225,0.888,1.942,1.096c0.988,0.286,1.692,0.482,2.037,1.745
			c0.174,0.637,1.687,0.908,2.97,0.928c-0.736-1.116-1.389-2.297-2.223-3.334c-2.214-2.755-3.956-5.788-5.742-8.828
			c-3.059-5.205-5.942-10.5-8.891-15.763c-2.666-4.758-6.125-9.066-8.921-13.758c-1.753-2.942-3.01-6.194-4.34-9.37
			c-2.019-4.821-4.244-9.598-5.708-14.592c-0.705-2.404-1.139-4.929-2.096-7.282c-1.574-3.871-2.996-7.83-4.921-11.523
			c-1.041-1.997-1.947-3.853-1.844-6.113c-2.856-3.69-1.655-8.522-3.498-12.522c-0.364-0.79,0.143-1.938-0.025-2.872
			c-0.235-1.307,0.179-2.848-1.144-3.839c0.394-4.917-2.261-9.204-2.881-13.923c-0.421-3.199-1.38-6.333-1.709-9.536
			c-0.41-3.992-1.15-7.872-2.231-11.736c-0.52-1.861-0.11-3.963-0.471-5.891c-0.447-2.385-0.158-4.907-1.383-7.172
			c-0.342-0.633-0.16-1.546-0.234-2.33c-0.083-0.882-0.114-1.777-0.29-2.641c-0.732-3.606-1.836-7.176-2.137-10.814
			c-0.161-1.946-0.859-3.794-0.804-5.69c0.051-1.79-0.08-3.532-0.188-5.307c-0.225-3.682-0.444-7.39,0.019-11.082
			c-1.403-1.367,1.33-2.255,0.367-3.841c-0.624-1.029,0.225-2.499,0.542-3.79c0.691-2.817,0.715-5.79,1.278-8.647
			c0.933-4.733,2.101-9.418,3.122-14.134c0.844-3.9,1.65-7.809,2.407-11.726c0.419-2.169,0.719-4.361,1.046-6.547
			c0.469-3.14,0.86-6.293,1.396-9.421c0.192-1.119,0.861-2.157,1.047-3.276c0.597-3.591,1.093-7.2,1.581-10.809
			c0.276-2.042,0.087-4.23,0.766-6.115c1.178-3.275,1.027-6.843,2.742-10.024c1.2-2.225,1.593-4.886,2.344-7.352
			c0.087-0.287,0.14-0.586,0.249-0.864c1.464-3.733,1.767-7.637,2.274-11.584c0.44-3.429,0.537-7.182,2.505-10.374
			c0.349-0.565-0.005-1.52,0.15-2.256c0.83-3.955,1.987-7.861,2.525-11.853c0.833-6.18,3.015-11.93,4.957-17.772
			c0.464-1.397,0.876-2.812,1.256-4.234c0.549-2.058,0.9-4.086,1.9-6.104c1.342-2.708,1.883-5.884,2.36-8.923
			c0.311-1.981,0.969-3.808,1.678-5.599c1.193-3.017,2.775-5.878,4.065-8.861c1.096-2.534,2.058-5.129,2.996-7.727
			c2.244-6.214,4.261-12.53,7.784-18.183c1.024-1.643,2.234-3.242,3.642-4.559c2.206-2.063,3.018-4.873,4.442-7.352
			c0.145-0.252,0.079-0.694,0.269-0.839c2.515-1.92,3.176-5.096,5.09-7.447c1.746-2.144,3.059-4.637,4.611-6.944
			c0.876-1.302,1.792-2.584,2.787-3.796c3.129-3.809,5.835-7.877,8.187-12.218c1.184-2.186,2.892-4.085,4.316-6.147
			c0.777-1.125,0.631-2.543,1.776-3.741c1.47-1.538,2.102-3.876,3.094-5.87c0.087-0.175,0.113-0.415,0.249-0.525
			c1.652-1.341,2.066-3.412,3.044-5.147c1.202-2.133,2.233-4.367,3.505-6.456c1.245-2.047,2.619-3.97,3.428-6.297
			c0.305-0.879,1.196-1.697,1.724-2.7c1.018-1.934,2.949-3.368,3-5.85c0.009-0.431,0.393-0.914,0.719-1.267
			c2.005-2.178,2.159-2.478,2.287-5.064c-0.663-0.071-1.332-0.142-2.178-0.233c-0.078,0.655-0.155,1.311-0.251,2.117
			c-3.294,1.367-4.599,4.491-6.306,7.409c-1.547-0.41-2.621,1.113-3.15,2.027c-1.445,2.492-3.615,4.24-5.336,6.369
			c-1.44,1.782-3.871,2.494-4.681,5.107c-0.54,1.742-2.6,3.065-4.118,4.42c-0.423,0.378-1.34,0.202-2.03,0.28l0.056,0.092
			c-0.009-0.644-0.017-1.287-0.026-1.931l0.085,0.094c1.097-0.855,2.194-1.711,3.277-2.556c-0.409-1.902-1.266-0.896-2.049-0.39
			c-0.413-1.154,0.377-1.75,1.162-2.074c1.753-0.724,4.007-2.458,5.374-4.498c-0.726,0-1.319,0-2.382,0
			c1.4-1.441,3.922-0.906,3.861-3.246c1.33-0.706,3.051-0.936,3.457-2.965c-0.406-0.275-0.862-0.585-1.321-0.896
			c0.956-1.798,0.956-1.798,3.122-0.899c0.139-2.34,3.331-3.425,2.142-6.523c0.889,0.246,1.567,0.433,2.405,0.665
			c-0.348-1.034-0.643-1.771,0.587-2.655c0.692-0.498,0.587-1.65,2.156-1.28c0.925,0.218,1.778-1.025,2.013-2.177
			c0.21-1.029,0.392-2.063,0.613-3.232c1.933,0.691,2.642-1.767,3.889-1.559c2.206,0.369,2.122-2.157,4.128-2.313
			c-1.375-0.863-2.115-1.737-0.796-2.902c0.175,0.487,0.346,0.962,0.517,1.437c0.25-1.577,3.142-1.663,2.108-3.782
			c0.272-0.104,0.652-0.128,0.799-0.325c0.672-0.901,2.586-0.614,2.272-2.602c-0.074-0.468,1.586-1.039,2.095-1.8
			c1.708-2.552,3.835-4.78,5.146-7.662c1.06-2.331,2.673-4.419,3.888-6.733c1.3-2.477,2.482-5.095,4.414-7.221
			c0.864-0.951,1.712-1.927,2.462-2.968c0.508-0.705,0.774-2.157,1.251-2.203c1.409-0.134,1.392-0.753,1.155-1.763
			c-0.024-0.104,0.212-0.369,0.36-0.398c2.656-0.525,2.756-3.611,4.783-4.754c0.742-2.852,3.554-4.132,4.911-6.349
			c1.254-2.05,2.866-3.716,4.268-5.577c2.653-3.524,5.162-7.292,8.416-10.19c3.26-2.902,6.254-6.15,9.945-8.641
			c1.372-0.926,2.32-2.536,4.178-2.868c0.176-0.031,0.428-0.185,0.47-0.331c0.65-2.283,2.703-2.995,4.445-4.09
			c0.626-0.393,1.47-1.039,1.522-1.631c0.155-1.754,1.491-0.86,2.374-1.26c0.539-1.328,0.834-2.825,2.876-3.186
			c1.048-0.186,2.067-1.471,2.773-2.486c2-2.877,5.708-3.448,7.886-6.206c1.393-1.764,3.684-2.817,5.573-4.189
			c1.62,0.733,2.315-0.984,3.521-1.381c0.816-0.269,1.447-1.474,2.19-1.503c1.139-0.044,1.657-0.212,1.74-1.397
			c0.019-0.273,0.509-0.631,0.85-0.743c1.195-0.395,2.094-0.935,3.017-1.968c0.689-0.772,2.456-0.811,3.287-2.008
			c2.321,0.427,3.286-1.948,5.173-2.496c2.732-0.793,4.88-2.675,7.175-4.258c0.92-0.635,1.899-0.795,2.979-0.981
			c0.618-0.106,0.742-1.535,2.212-1.085c0.594,0.182,1.866-1.134,2.508-2.005c0.858-1.164,2.478,0.666,3.077-0.977
			c0.077-0.21,0.457-0.415,0.714-0.438c2.567-0.229,4.438-2.133,6.836-2.79c2.443-0.67,5.044-1.154,7.199-2.381
			c2.17-1.235,4.371-2.091,6.712-2.869c3.457-1.148,6.787-2.681,10.159-4.08c2.651-1.1,5.199-2.644,7.955-3.222
			c1.73-0.363,2.723-1.793,4.07-2.009c1.759-0.282,3.009-1.824,4.357-1.869c3.639-0.122,6.325-3.054,10.068-2.841
			c1.51,0.086,3.051-1.313,4.655-1.756c3.4-0.939,6.835-1.772,10.288-2.496c2.085-0.437,4.285-0.383,6.334-0.925
			c2.061-0.545,3.941-1.772,6.002-2.32c5.703-1.519,11.437-3.004,17.445-2.391c0.367,0.037,0.77-0.05,1.125-0.171
			c2.793-0.954,5.534-2.098,8.379-2.848c2.415-0.636,5.026-0.566,7.41-1.28c2.77-0.829,5.58-0.874,8.379-1.071
			c3.844-0.271,7.42-1.793,11.159-2.274c4.278-0.551,8.514-1.377,12.805-1.855c2.798-0.312,5.735-0.076,8.363-1.465
			c0.251-0.133,0.572-0.19,0.861-0.189c5.425,0.024,10.742-1.365,16.21-1.1c2.425,0.118,4.884-0.738,7.344-0.951
			c1.747-0.151,3.528-0.039,5.285,0.088c3.434,0.249,6.891,0.404,10.284,0.943c3.838,0.61,7.731,0.112,11.567,1.017
			c3.856,0.91,7.836,1.291,11.759,1.922c6.094,0.98,12.209,1.558,18.395,1.707c3.56,0.086,7.12,0.885,10.644,1.551
			c6.72,1.27,13.464,2.154,20.305,2.576c5.191,0.321,10.326,1.478,15.507,2.092c2.721,0.323,5.243,1.56,8.118,1.314
			c1.679-0.143,3.438,0.604,5.156,0.972c2.688,0.576,5.416,1.02,8.046,1.797c2.653,0.784,5.206,1.903,7.802,2.878
			c2.78,1.044,5.584,2.029,8.331,3.155c3.387,1.387,6.736,2.868,10.081,4.355c2.352,1.046,4.684,2.138,6.998,3.265
			c2.239,1.09,4.555,0.883,6.925,0.682c1.763-0.149,3.489-0.321,5.345,0.034c2.532,0.484,5.089,1.666,7.828,0.648
			c0.77-0.286,1.784-0.077,2.651,0.088c3.652,0.692,7.289,0.578,10.929-0.053c0.49-0.085,1.016-0.285,1.474-0.189
			c3.258,0.68,6.498,1.446,9.754,2.137c2.018,0.428,4.052,0.778,6.081,1.151c1.825,0.336,3.874,0.247,5.454,0.739
			c1.753,0.546,3.443,0.665,5.175,0.894c0.393,0.052,0.838,0.12,1.192-0.005c3.196-1.132,6.252-0.426,9.348,0.504
			c0.956,0.287,1.724,0.547,2.56,1.206c1.002,0.791,2.481,1.161,3.802,1.327c2.903,0.365,5.462,1.263,8.044,2.777
			c2.307,1.353,5.23,1.673,7.896,2.39c1.125,0.302,2.414,0.207,3.416,0.715c3.908,1.98,3.876,2.043,7.224,2.058
			c0.709,2.283,2.355,3.723,4.537,4.75c1.282,0.603,2.412,1.543,3.575,2.382c1.24,0.895,2.318,1.997,4.049,2.025
			c0.53,0.008,1.242,0.624,1.54,1.15c1.449,2.548,3.894,4.054,6.14,5.648c1.389,0.986,2.639,1.891,3.767,3.231
			c1.917,2.279,2.987,4.956,4.074,7.581c1.147,2.771,2.333,5.525,3.476,8.283c1.95,4.704,5.998,7.23,9.323,10.52
			c0.66,0.653,1.736,0.91,2.649,1.28c4.111,1.667,7.672,4.179,11.166,6.877c2.664,2.058,5.504,3.984,8.507,5.485
			c3.894,1.946,7.394,4.312,10.355,7.474c3.192,3.408,6.264,6.932,9.524,10.274c2.845,2.916,4.44,6.544,5.981,10.156
			c1.792,4.199,2.976,8.659,4.801,12.842c1.399,3.207,2.766,6.392,3.602,9.788c0.281,1.142,0.587,2.295,0.693,3.46
			c0.363,4.003,2.027,7.602,3.313,11.331c1.421,4.118,2.654,8.304,3.872,12.488c1.053,3.616,1.527,7.473,3.062,10.859
			c1.949,4.301,2.35,8.993,4.183,13.299c1.345,3.159,3.51,5.62,5.637,8.169c0.376,0.451,0.962,0.822,1.132,1.335
			c1.044,3.16,3.52,5.347,5.292,8.007c0.264,0.396,0.339,0.914,0.537,1.36c0.343,0.774,0.521,1.764,1.109,2.26
			c1.967,1.66,2.737,3.993,3.921,6.121c1.468,2.636,1.552,5.645,2.609,8.362c1.234,3.173,2.663,6.27,4.014,9.398
			c0.117,0.271,0.454,0.575,0.394,0.775c-0.516,1.716,1.344,2.247,1.715,3.54c0.415,1.447,1.002,2.863,1.676,4.211
			c0.564,1.128,1.371,2.134,2.056,3.202c0.367,0.572,1.012,1.17,0.999,1.744c-0.04,1.788,0.547,2.947,1.842,4.337
			c1.215,1.304,1.456,3.628,1.838,5.56c0.303,1.534,0.285,3.062,1.471,4.338c0.477,0.514,0.603,1.469,0.654,2.238
			c0.086,1.302,0.486,2.409,1.038,3.609c0.703,1.53,0.431,3.526,1.189,5.009c0.751,1.469,2.115,2.567,1.688,4.513
			c-0.081,0.369,0.774,0.865,0.859,1.36c0.744,4.338,2.072,8.516,3.771,12.539c0.425,1.007-0.797,2.166,0.734,3.071
			c0.737,0.435,0.845,2.079,1.06,3.21c0.216,1.138,0.186,2.321,0.323,3.477c0.025,0.214,0.317,0.544,0.512,0.565
			c1.398,0.149,1.505,1.604,1.517,2.239c0.031,1.579,0.103,2.877,1.563,3.862c0.319,0.215,0.237,1.122,0.224,1.708
			c-0.026,1.232,0.326,2.188,1.08,3.261c0.724,1.031,0.688,2.597,1.007,4.028c0.228-0.026,0.576-0.066,0.778-0.089
			c0.25,0.758,0.487,1.484,0.728,2.209c0.825,2.488,1.66,4.973,2.466,7.467c0.087,0.27-0.117,0.688,0.026,0.877
			c2.373,3.141,1.902,7.13,3.196,10.577c1.137,3.029,0.554,6.212,1.041,9.308c0.45,2.861,0.069,5.848,0.116,8.779
			c0.049,3.035,0.463,6.024,0.889,9.036c0.436,3.087-0.118,6.31-0.176,9.474c-0.019,1.048,0.192,2.099,0.228,3.151
			c0.027,0.785-0.059,1.574-0.094,2.361c-0.04,0.887-0.088,1.773-0.118,2.66c-0.039,1.163-0.031,2.328-0.102,3.489
			c-0.191,3.133-0.286,6.28-0.658,9.393c-0.409,3.425-0.574,6.861-1.341,10.277c-0.74,3.296-0.567,6.796-0.814,10.205
			c-0.069,0.956-0.202,1.908-0.314,2.861c-0.035,0.296-0.158,0.593-0.138,0.883c0.481,7.007-0.26,14.077,1.309,21.041
			c0.422,1.871-0.009,3.942-0.102,5.918c-0.089,1.876-0.025,3.799-0.427,5.613c-0.722,3.256,0.406,6.433,0.074,9.676
			c-0.374,3.643-0.228,7.337-0.538,10.989c-0.552,6.504-1.152,13.009-1.983,19.481c-0.43,3.347-1.397,6.626-2.122,9.935
			c-0.636,2.903-1.408,5.784-1.88,8.714c-1.025,6.355-1.901,12.734-2.822,19.106c-0.085,0.59-0.027,1.199-0.079,1.795
			c-0.21,2.383-0.08,4.868-0.733,7.125c-1.294,4.474-1.241,9.024-1.5,13.577c-0.328,5.749-0.805,11.489-1.141,17.237
			c-0.131,2.244,0.066,4.511-0.121,6.748c-0.112,1.335-0.393,2.815-1.095,3.911c-2.035,3.174-3.318,6.575-3.821,10.281
			c-0.236,1.742-0.812,3.221-2.136,4.479c-0.965,0.917-1.651,2.129-2.767,3.053c0.244-0.792,0.487-1.584,0.893-2.902
			c-0.81,0.404-1.341,0.488-1.514,0.783c-1.512,2.572-2.923,5.203-4.441,7.771c-0.753,1.274-1.736,2.411-2.494,3.682
			c-4.484,7.521-8.9,15.084-13.416,22.586c-1.177,1.954-2.596,3.767-3.965,5.599c-3.099,4.148-6.093,8.385-9.399,12.363
			c-2.881,3.467-4.924,7.415-7.293,11.184c-1.043,1.659-2.503,3.051-3.707,4.615c-1.207,1.567-2.544,3.087-3.445,4.824
			c-1.676,3.234-3.873,6.007-6.391,8.604c-2.978,3.072-5.783,6.31-8.724,9.42c-2.331,2.465-4.736,4.859-7.144,7.25
			c-0.634,0.629-1.348,1.207-2.109,1.672c-4.538,2.775-8.458,6.298-12.367,9.87c-2.649,2.421-5.604,4.505-8.419,6.744
			c-1.235,0.983-2.555,1.881-3.677,2.98c-5.677,5.564-12.201,9.983-19.139,13.728c-4.811,2.596-9.831,4.893-14.951,6.801
			c-4.826,1.798-9.14,4.16-13.296,7.242c-5.413,4.014-11.28,7.457-17.137,10.821c-6.469,3.715-13.353,6.711-19.511,10.967
			c-2.855,1.973-5.495,4.257-8.225,6.409c-0.548,0.432-0.992,1.077-1.606,1.328c-2.647,1.083-4.433,3.551-7.33,4.321
			c-1.013,0.269-2.551,0.635-2.84,2.297c-0.071,0.411-0.841,0.883-1.364,1.003c-3.001,0.688-4.897,3.401-7.824,4.189
			c-0.188,0.051-0.539-0.024-0.571,0.056c-1.1,2.797-4.121,2.174-6.073,3.435c-0.397,0.257-0.893,0.488-1.115,0.865
			c-0.561,0.957-1.288,0.9-2.277,0.881c-1.185-0.022-2.446,0.314-3.556,0.778c-2.349,0.981-4.383,2.752-7.145,2.679
			c-0.462-0.012-1.281,0.223-1.346,0.488c-0.526,2.146-3.483,1.857-3.969,4.062c-0.086,0.388-0.938,0.66-1.479,0.883
			c-1.034,0.426-1.931,0.789-2.121,2.183c-0.153,1.119-1.386,1.295-2.162,0.866c-1.265-0.7-2-0.01-2.956,0.542
			c-2.202,1.27-4.195,2.992-6.927,3.185c-0.626,0.044-1.183,0.708-1.828,0.904c-1.211,0.368-2.15,1.303-3.797,0.711
			c-1.098-0.394-2.81-0.189-3.919,1.547c-0.744,1.165-2.677,1.79-4.2,2.181c-1.901,0.489-3.539,0.857-4.859,2.665
			c-1.283,1.757-3.599,2.172-5.783,2.651c-0.095-2.547-0.095-2.547,1.538-3.559c0.303,0.415,0.607,0.833,1.155,1.585
			c0.176-1.251,0.293-2.088,0.404-2.876c2.707-0.752,5.106-1.859,7.256-3.495c0.267-0.203,0.674-0.272,1.024-0.303
			c0.364-0.031,1.005,0.2,1.07,0.076c1.694-3.209,5.088-2.209,7.683-3.153c0.092-0.034,0.172-0.098,0.495-0.286
			c-0.307-0.238-0.539-0.418-0.974-0.756c2.375-1.353,4.737-2.698,7.03-4.004c0.1,0.811,0.164,1.331,0.229,1.851
			c1.69-2.622,3.809-3.93,6.732-4.224c0.713-0.072,1.33-1.097,2.118-1.797c0.445,0.409,0.831,0.764,1.257,1.155
			c0.891-0.723,0.813-1.488,0.168-2.302c0.98,0.164,1.427-0.202,1.214-1.221c1.345,0.513,2.437,0.215,3.241-1.009
			c0.702,0.066,1.404,0.133,2.196,0.207c-0.899-1.486-0.899-1.486-2.118-0.144c-1.081,0.341-2.157,0.685-3.23,1.032
			c-0.409,0.404-0.819,0.806-1.23,1.208c-1.141,0.183-2.368,0.157-3.411,0.58c-9.891,4.013-19.718,8.188-29.634,12.138
			c-6.205,2.471-12.754,3.817-19.291,5.088c-6.946,1.351-13.922,2.55-20.893,3.774c-6.763,1.187-13.545,2.272-20.299,3.508
			c-2.246,0.411-4.408,1.276-6.652,1.709c-3.597,0.693-7.241,1.143-10.845,1.806c-2.05,0.377-4.126,0.794-6.072,1.513
			c-3.493,1.289-6.99,2.253-10.767,2.137c-1.367-0.042-2.771,0.343-4.121,0.681c-7.834,1.961-15.828,1.765-23.808,1.922
			c-7.464,0.147-14.917,0.076-22.364,1.293c-4.952,0.809-10.095,0.43-15.15,0.625c-3.036,0.117-6.069,0.314-9.104,0.475
			c-0.008,0.222-0.016,0.443-0.024,0.665c2.32,0.227,4.642,0.636,6.958,0.602c1.09-0.016,1.401,0.351,1.697,1.134l0.075-0.082
			c-3.976,1.313-7.956,1.502-12.031,0.341c-1.253-0.357-2.662-0.194-4.001-0.214c-2.611-0.04-5.225-0.113-7.833-0.034
			c-1.947,0.059-3.899,0.563-5.828,0.465c-3.901-0.197-7.591,1.131-11.425,1.308c-1.749,0.081-3.497,0.183-5.246,0.26
			c-1.366,0.06-2.753-0.042-3.837,1.098c-0.198,0.209-0.834,0.278-1.081,0.12c-1.529-0.98-3.058-0.246-4.603-0.158
			c-2.055,0.116-4.021,1.11-6.186,0.328c-1.708-0.617-3.386,0.815-5.338,0.203c-1.689-0.529-3.678-0.083-5.534-0.1
			c-1.777-0.016-3.556-0.155-5.329-0.09c-1.87,0.069-3.764,0.161-5.595,0.514c-4.209,0.811-8.387,1.783-12.576,2.696
			c-6.916,1.507-13.903,2.548-20.923,3.452c-4.538,0.584-9.038,1.538-13.509,2.531c-1.289,0.286-2.517,1.153-3.607,1.974
			c-3.167,2.386-6.724,4.09-10.084,6.118c-3.823,2.307-8.267,3.003-11.975,5.541c-1.718,1.176-4.194,1.291-6.353,1.766
			c-3.753,0.826-7.544,1.487-11.288,2.35c-3.307,0.763-6.584,1.349-10.016,0.959c-1.644-0.187-3.354,0.266-5.015,0.15
			c-4.256-0.299-8.505,0.115-12.781-0.206c-4.102-0.308-8.212-0.527-12.267-1.185c-4.012-0.651-7.853-1.798-11.629-3.507
			c-2.031-0.92-4.068-2.411-6.594-2.389c-0.801,0.007-1.642-0.57-2.346-1.475c-0.699-0.898-2.324-1.076-3.814-1.679
			c-0.028-0.133-0.14-0.667-0.276-1.313c-0.638,0.221-1.176,0.408-1.799,0.624c-0.998-1.075-1.642-2.381-3.479-2.764
			c-1.076-0.224-1.715-2.254-2.69-3.347c-0.656-0.736-0.651-2.07-2.174-2.166c-0.434-0.027-0.745-1.463-1.174-2.218
			c-0.745-1.312-0.822-3.285-2.953-3.006c-1.044-1.884,0.076-4.26-2.078-5.707c-0.56-0.376-0.254-2.044-0.355-3.23
			c-0.439,0-0.886,0-1.707,0c0.732-0.922,1.304-1.642,1.827-2.301c-0.492-0.609-1.329-1.201-1.419-1.89
			c-0.081-0.622,0.654-1.351,1.098-2.159c-0.476-0.408-0.975-0.836-1.611-1.38c0.47-0.564,0.883-1.06,1.661-1.993
			c-0.621-0.227-1.291-0.472-1.679-0.614c0.706-1.633,1.197-2.768,1.794-4.15c-0.983-0.205-1.575-0.328-2.847-0.593
			c1.076-0.631,1.638-0.962,2.444-1.435c-0.169-0.816-0.854-2.06-0.505-2.847c0.797-1.795-1.362-1.676-1.325-3.254
			c0.16-0.259,0.564-0.914,1.079-1.75c-0.324-0.563-0.698-1.213-1.208-2.098c0.89-0.156,1.592-0.278,2.462-0.43
			c-0.557-1.082-1.071-2.08-1.59-3.088c-0.265,0.187-0.539,0.38-1.22,0.861c0.356-1.17,0.557-1.902,0.805-2.619
			c0.178-0.512,0.66-1.046,0.578-1.491c-0.136-0.737-0.543-1.459-0.967-2.102c-2-3.031-3.878-6.163-6.12-9.008
			c-2.235-2.836-3.388-6.368-5.611-9.048c-3.636-4.382-6.01-9.606-9.822-13.82c-0.194-0.214-0.489-0.441-0.515-0.685
			c-0.35-3.256-2.492-5.681-3.793-8.497c-1.484-3.21-3.292-6.294-4.32-9.711c-1.953-0.773-0.892-2.984-2.049-4.238
			c-1.112-1.206-1.911-2.718-2.754-4.15c-2.164-3.675-4.155-7.459-6.456-11.045c-1.317-2.052-3.104-3.803-4.679-5.691
			c-2.8-3.356-5.567-6.722-7.817-10.505c-1.507-2.534-3.398-4.838-5.067-7.279c-1.755-2.568-3.264-5.329-5.219-7.73
			c-2.266-2.782-3.284-6.447-6.285-8.693c-0.303-0.227-0.311-0.865-0.428-1.319c-0.358-1.394-2.279-3.246-3.766-3.579
			c-0.176-0.04-0.387,0.076-0.582,0.119c-0.413-1.907-0.413-1.907-1.632-2.605c0.834-2.194,0.688-2.816-1.049-3.861
			c-0.764-0.459-1.563-0.921-2.409-1.167c-1.326-0.385-2.385-1.071-2.827-2.364c-0.441-1.292-1.343-1.616-2.706-1.571
			c-0.089-2.886-1.813-4.139-4.52-4.376c-0.146-0.713,0.7-1.827-0.751-2.054l0.059,0.068c-1.123-2.043-1.123-2.043-4.039-2.246
			c0-0.53,0-1.07,0-1.857c-0.576,0.044-1.122,0.085-1.705,0.129c-1.747-2.267-2.999-5.275-6.952-5.177
			c0.397-0.77,0.732-1.421,1.027-1.993c-2.112-2.398-4.22-4.836-6.394-7.215c-0.306-0.335-0.682-1.617-1.678,0.061
			c-0.186-1.769,0.025-3.706-2.072-3.159c-0.378-1.239-0.501-2.286-1.002-3.1c-0.477-0.774-1.348-1.306-1.96-1.865
			c-0.108,0.045,0.161-0.049,0.411-0.181c0.162-0.085,0.295-0.224,0.627-0.483c-2.395-1.708-3.64-4.428-6.008-6.2
			c-0.64-0.48-0.427-2.099-0.675-3.622c-0.799-0.815-3.038,1.257-3.805-1.43c0.548,0.344,0.834,0.602,1.168,0.705
			c0.233,0.072,0.701,0.008,0.767-0.133c0.148-0.316,0.281-0.893,0.117-1.054c-0.626-0.616-1.463-1.026-2.054-1.666
			c-1.205-1.306-2.682-2.556-3.328-4.124c-0.543-1.317-1.416-1.28-2.757-1.509c0.96-0.318,1.486-0.492,2.309-0.766
			c-1.054-1.336-1.445-3.096-4.077-2.193c0.461-0.957,0.717-1.486,1.079-2.237c-0.832-0.65-1.742-1.362-2.754-2.154
			c1.235-3.411-1.605-4.679-3.482-6.489c-0.219-0.211-0.508-0.509-0.508-0.767c0.006-4.175-1.65-7.354-4.891-9.455
			c-0.561-2.892-1.247-5.497-2.706-8.107c-1.118-1.999-3.644-3.672-2.908-6.574c0.044-0.174-0.002-0.483-0.121-0.57
			c-2.301-1.684-2.921-4.422-4.245-6.716l0.079,0.086c-0.534-1.085-1.075-2.168-1.598-3.258c-0.129-0.268-0.171-0.58-0.308-0.843
			c-0.419-0.806-1.984-0.984-1.042-2.603c0.319-0.548-0.882-1.865-1.155-2.893c-0.629-2.372-1.166-4.747-3.99-5.759
			c0.545,0,1.09,0,1.661,0c-0.256-1.357-0.449-2.59-0.727-3.804c-0.344-1.499-1.439-2.215-3.242-2.125
			c1.027-1.622,2.232-2.748,0.158-3.944c-0.552-0.318-0.857-1.835-0.619-2.597c0.563-1.808-0.382-2.543-1.713-3.187
			c1.099-1.437,1.092-1.434,0.528-3.067c-0.257-0.745-0.681-1.501-0.682-2.252c-0.002-1.78-0.97-2.546-2.967-2.75
			c0.929-0.838,1.552-1.4,2.047-1.847c-0.749-2.732-1.477-5.389-2.231-8.139c-0.575-0.027-1.224-0.057-2.131-0.099
			c1.221-2.39,1.456-4.652,0.299-6.921c-0.992-1.945,0.193-4.599-1.995-6.351c0.596-1.416,0.605-2.991-0.006-4.649
			c-0.544-1.475-0.417-1.71,0.204-3.322c-0.502-0.26-1.013-0.526-1.36-0.706c0.118-1.339,0.229-2.606,0.34-3.873
			c-1.777-0.267,0.657-2.822-1.633-3.069c0.682-0.258,1.364-0.515,2.469-0.933c-1.091-0.522-1.904-0.911-2.856-1.367
			c0.256-0.602,0.517-1.214,0.864-2.03c-0.653-0.352-1.357-0.731-1.883-1.014c0.469-1.489,0.53-2.617,1.107-3.324
			c1.33-1.633,0.868-3.616,0.135-4.761c-1.126-1.762-0.488-3.153-0.139-4.819c-0.59-0.343-1.154-0.672-1.698-0.989
			c0.367-0.951,0.492-1.943,1.042-2.549c0.861-0.947,0.537-1.744,0.274-2.739c-0.978-3.703-1.922-7.43-0.106-11.195
			c-0.506-0.58-0.953-1.092-1.18-1.352c0.17-2.361,0.995-4.742,0.292-6.519c-0.771-1.949,1.09-4.408-1.434-5.633
			c1.884-3.312,2.293-6.458,0.185-9.782c0.436-0.708,1.789-1.416,0.415-2.56c-0.128-0.106,0.059-0.671,0.187-0.988
			c0.512-1.265,1.295-2.473,1.527-3.783c0.238-1.343-0.463-2.5-2.519-3.091c0.965-0.151,1.374-0.215,1.825-0.286
			c0.759-2.557,0.411-5.36,1.589-7.845c-1.348-2.9,1.603-5.516,0.555-8.396c1.407-2.183,1.253-4.704,1.53-7.128
			c0.233-2.039,0.45-4.081,0.6-6.127c0.062-0.849,0.322-1.863-1.074-2.339c0.724-0.524,1.341-0.969,1.923-1.39
			c0.025-2.314-1.099-4.682,1.133-6.681c0.425-0.38-0.254-1.993-0.471-3.332c1.028-0.607,1.651-1.945,2.155-3.527
			c0.552-1.73,0.911-3.608,2.222-5.06c0.27-0.298,0.115-0.97,0.179-1.467c0.043-0.331,0.035-0.723,0.213-0.971
			c0.595-0.831,1.633-3.171,1.467-3.849c-0.448-1.823,0.585-2.987,1.723-4.102c1.01-0.989,1.857-1.942,0.509-2.96
			c0.764-1.362,2.084-2.682,2.124-4.04c0.053-1.79,1.447-2.912,1.511-4.483c0.064-1.579,1.996-2.12,1.82-3.73L174.843,523.598z
			 M805.663,960.347c-0.564-0.106-1.128-0.211-1.953-0.366c0.77,1.766,1.337,0.964,1.867,0.308
			c-0.013-0.385-0.026-0.771-0.039-1.156c-0.083,0.01-0.167,0.02-0.25,0.03C805.413,959.557,805.538,959.952,805.663,960.347z
			 M866.621,923.605c-0.589,0.49-1.224,0.936-1.744,1.492c-0.225,0.241-0.21,0.707-0.385,1.379c2.102-1.545,2.102-1.545,2.123-2.89
			c0.74,0.37,1.48,0.987,2.287,0.128C868.077,922.096,867.361,923.898,866.621,923.605z M319.511,306.044
			c0.308-0.324,0.699-0.604,0.899-0.984c0.158-0.301,0.167-0.749,0.074-1.085c-0.043-0.154-0.627-0.348-0.728-0.258
			c-0.253,0.226-0.499,0.599-0.513,0.923c-0.02,0.469,0.167,0.947,0.266,1.414c-0.11-0.156-0.186-0.381-0.337-0.454
			c-0.524-0.256-1.073-0.461-1.613-0.684c-0.055,0.175-0.164,0.5-0.156,0.503c0.523,0.192,1.053,0.362,1.587,0.522
			C319.159,305.991,319.337,306.011,319.511,306.044z M799.029,964.288c0.787-0.06,1.574-0.121,2.34-0.214
			c0.525-1.008,1.05-2.016,1.574-3.024c-1.863,0.5-2.194,1.604-1.545,3.073c-0.879-0.435-1.758-0.869-2.637-1.304
			c-0.108,0.11-0.216,0.221-0.324,0.331c0.228,0.415,0.456,0.83,0.685,1.246c-0.363,0.158-0.726,0.317-1.089,0.475
			c0.104,0.135,0.208,0.27,0.312,0.406C798.573,964.947,798.801,964.617,799.029,964.288z M518.395,177.67
			c1.649,1.273,3.061-0.253,4.677-0.282c-1.692-2.07-3.311-1.904-4.612,0.353c-1.357-1.223-2.784-0.703-4.149-0.071
			c-0.261,0.121-0.28,0.766-0.423,1.208c1.588,0.416,3.022-1.708,4.507,0.833C518.395,178.581,518.395,178.126,518.395,177.67z
			 M1014.361,433.923l-0.006,0.009c0.089-0.042,0.199-0.065,0.263-0.132c0.062-0.065,0.128-0.238,0.107-0.254
			c-1.046-0.806-2.887-0.805-2.781-2.891c0.526,0.221,1.014,0.426,2.01,0.844c-1.651-2.964-2.835-5.647-5.536-7.709
			c0.759-0.073,1.236-0.118,2.07-0.198c-0.5-0.595-0.791-1.016-1.156-1.358c-0.601-0.563-1.251-1.074-1.885-1.61
			c0.897-2.13,0.593-2.963-2.155-4.468c0.921,1.863,1.582,3.2,2.242,4.537c-0.433-0.16-0.866-0.32-1.763-0.653
			c0.341,2.109,0.593,3.821,0.898,5.524c0.737,4.117,1.379,8.242,3.128,12.123c1.125,2.496,2.146,5.099,2.745,7.759
			c1.304,5.793,2.917,11.494,4.975,17.042c1.204,3.246,2.9,6.337,4.623,9.356c1.965,3.444,3.281,7.058,3.77,10.973
			c0.638,5.114,1.027,10.259,3.236,15.058c0.768,1.669,1.336,3.542,1.485,5.364c0.565,6.893,1.99,13.518,5.119,19.743
			c0.751,1.494,1.176,3.156,1.712,4.754c0.974,2.904,1.892,5.826,2.891,8.721c0.317,0.917,0.701,1.899,1.917,1.87
			c1.372-2.191,0.176-3.797-1.33-5.607c0.791-0.102,1.805,0.239,1.398-1.174c-0.303-1.052,0.373-2.352,0.274-3.513
			c-0.04-0.473-0.977-0.87-1.657-1.427c0.164-1.551,1.152-3.19,0.256-5.249c-0.645-1.481,0.843-3.581-0.791-5.136
			c-0.061-0.058,0.052-0.468,0.152-0.5c1.171-0.368,0.562-1,0.264-1.594c-0.2-0.399-0.575-0.811-0.557-1.202
			c0.094-2.001-0.558-3.614-2.067-4.96c-0.386-0.344-0.767-1.23-0.588-1.582c0.811-1.599-0.269-2.589-0.777-3.899
			c-0.729-1.878-0.852-3.992-1.231-5.989c-1.433-0.014-2.572-0.693-2.237-1.121c1.619-2.064-0.586-2.608-1.411-3.563
			c1.475-2.833,0.568-4.004-2.222-5.871c0.369-0.442,0.724-0.866,1.31-1.568c-0.711-1.075-1.733-2.179-2.217-3.484
			c-0.437-1.177-0.205-2.585-0.426-3.865c-0.106-0.615-0.794-1.15-0.843-1.752c-0.252-3.107-1.76-5.772-2.847-8.586l0.086,0.085
			c0.81-1.71-1.537-1.499-1.637-2.638c0.257-0.426,0.498-0.825,0.828-1.372c-0.658-0.03-1.079-0.049-1.618-0.074
			c0.288-1.197,0.559-2.32,0.853-3.541c-0.79-0.172-1.393-0.303-2.123-0.462c0.448-0.517,0.759-0.876,1.108-1.279
			c-0.366-1.562-2.505-2.476-1.378-4.491c-0.645,0.035-0.948,0.051-1.511,0.081c0.552-0.859,0.908-1.412,1.138-1.771
			c-1.401-3.257-1.981-6.572-3.635-9.4c-0.456-0.157-0.946-0.326-1.435-0.494c-0.183-0.285-0.367-0.57-0.55-0.856
			c0.643-0.258,1.286-0.517,2.032-0.817c-0.505-0.778-1.241-1.411-1.311-2.111C1015.35,435.376,1015.448,435.366,1014.361,433.923z
			 M332.402,949.786c-0.229-0.167-0.668-0.351-0.656-0.498c0.135-1.709,0.711-3.338,0.624-5.112
			c-0.164-3.336-0.119-3.423-1.724-7.252c-0.157-0.376,0.183-1.08,0.486-1.489c0.222-0.299,0.76-0.365,1.5-0.681
			c-1.026-0.963-1.779-1.67-2.67-2.507c1.015-1.239,2.228-2.478,0.331-3.936c-0.352-0.27-0.465-1.174-0.33-1.692
			c0.43-1.651-0.114-2.655-2.122-3.057c1.718-0.425,1.262-1.163,0.819-1.859c-0.409-0.642-0.916-1.225-1.293-1.884
			c-0.422-0.737-0.861-1.367-0.667-2.446c0.119-0.665-0.915-1.69-1.647-2.29c-0.361-0.296-1.212,0.005-2.055,0.046
			c0.492-1.712-0.324-2.695-1.828-3.465c-1.818-0.93-3.785-1.828-5.199-3.231c-2.302-2.284-4.918-3.82-7.76-5.302
			c-1.384-0.722-3.245-1.02-4.314-2.675c-0.592-0.917-2.076-1.258-3.095-1.824c-0.113-0.667-0.224-1.318-0.34-2.001
			c-0.647,0.144-1.127,0.251-1.703,0.379c-0.439-1.11-0.087-2.981-2.257-2.594c-0.142,0.025-0.328-0.647-0.603-0.824
			c-0.571-0.368-1.327-0.505-1.804-0.953c-0.621-0.584-0.902-1.59-1.579-2.043c-1.999-1.339-4.467-2.049-5.638-4.44
			c-2.626-0.61-3.62-2.97-5.11-4.789c-1.765-2.156-3.962-3.629-6.803-4.304c2.789,2.538,4.112,5.965,6.049,9.001
			c2.208,3.461,4.93,6.603,7.531,9.802c2.807,3.453,5.628,6.86,7.814,10.786c2.169,3.896,5.12,7.405,6.917,11.444
			c2.005,4.506,4.074,8.965,6.395,13.307c2.461,4.604,4.135,9.588,7.418,13.812c2.779,3.575,4.959,7.614,7.427,11.432
			c1.932,2.988,3.975,5.908,5.812,8.952c0.691,1.145,1.629,1.195,2.731,1.454c0.504-1.51,0.818-2.851-0.536-4.037
			c0.454-0.287,0.853-0.54,1.334-0.844c-1.163-0.828,0.252-3.072-2.109-3.222c0.306-0.586,0.529-1.013,0.749-1.437
			c0.179,0.331,0.359,0.662,0.538,0.993c0.136-0.112,0.272-0.224,0.408-0.337c-0.338-0.197-0.675-0.393-1.013-0.59
			c1.008-2.638,1.114-5.264-0.108-7.869c0.355-0.18,0.71-0.359,1.065-0.539c-0.182-0.171-0.364-0.342-0.546-0.513
			C332.695,949.034,332.548,949.41,332.402,949.786z M422.389,219.513c0.538,0,1.076,0,1.614,0c0.029-0.148,0.057-0.296,0.086-0.443
			c-0.548-0.283-1.096-0.566-1.643-0.85c0.019-0.15,0.038-0.301,0.056-0.451c1.366,0,2.732,0,4.227,0
			c0.749-0.97,2.547-2.214,4.027-2.77c0.178-0.067,0.293-0.371,0.38-0.589c0.117-0.292,0.177-0.607,0.262-0.912
			c0.29,0.15,0.566,0.351,0.875,0.436c0.385,0.107,0.857,0.27,1.183,0.139c0.575-0.229,1.069-0.663,1.608-1.018
			c-0.084-0.526-0.17-1.064-0.198-1.242c1.793-1.656,4.046-1.651,5.766-3.051c1.594-1.298,4.022-1.078,5.645-2.589
			c1.503-1.399,4.295-0.191,5.281-2.639c0.44,0.489,0.809,0.898,1.208,1.341c2.336-3.216,5.628-4.309,9.095-5.208
			c-0.046-0.283-0.158-0.578-0.12-0.852c0.036-0.257,0.23-0.492,0.417-0.858c0.8,0.233,1.549,0.607,2.301,0.615
			c0.481,0.005,1.409-0.752,1.388-0.793c-1.118-2.235,0.507-1.447,1.491-1.409c0.25,0.01,0.562-0.116,0.752-0.284
			c0.496-0.439,0.873-1.196,1.423-1.338c0.572-0.147,1.292,0.279,1.88,0.437c0.172-0.418,0.283-0.686,0.404-0.979
			c0.275,0.327,0.512,0.608,0.791,0.94c0.304-0.798,0.583-1.529,0.976-2.56c2.976,1.299,4.88,0.096,5.803-3.156
			c2.002,1.657,3.245-2.778,5.048-0.176c2.671-1.49,5.148-2.884,7.644-4.243c0.221-0.12,0.572,0.024,0.855-0.013
			c0.737-0.095,1.501-0.129,2.198-0.358c0.863-0.283,1.447-0.937,2.61-0.898c1.325,0.045,2.504-1.902,4.165-0.597
			c0.019,0.015,0.146-0.109,0.454-0.346c-0.065-0.551-0.147-1.25-0.24-2.041c-1.166,0.249-2.017,0.478-2.884,0.607
			c-7.021,1.046-13.752,3.232-20.35,5.689c-7.527,2.803-14.835,6.191-22.268,9.253c-7.355,3.03-14.602,6.424-22.159,8.836
			c-10.105,3.225-18.724,9.269-28.141,13.773c-4.188,2.003-7.932,4.924-11.908,7.38c-5.769,3.563-11.399,7.32-16.608,11.678
			c-7.329,6.132-14.758,12.15-21.937,18.453c-3.88,3.407-7.548,7.117-10.918,11.029c-4.609,5.349-8.823,11.037-13.245,16.549
			c-2.921,3.641-6.042,7.13-8.826,10.872c-2.026,2.723-3.647,5.748-5.448,8.639c0.143,0.171,0.286,0.342,0.428,0.513
			c1.466-1.601,3.37-1.335,5.618-1.396c-3.218-3.517,1.891-2.875,1.599-5.275c1.722,1.312,2.99,1.166,4.109-0.014
			c0.089-0.094-0.01-0.366-0.029-0.677c-0.556,0.104-1.097,0.206-1.743,0.327c-0.208-0.79-0.581-1.877,0.746-1.428
			c1.598,0.542,0.864-0.821,1.287-1.191c0.337,0.284,0.669,0.565,1.003,0.847c0.736-0.904,1.332-1.636,1.937-2.379
			c-0.637-0.04-1.15-0.072-2.295-0.143c1.559-0.824,2.461-1.441,3.456-1.788c0.965-0.336,0.259-2.327,2.148-1.867
			c0.569,0.139,2.194-0.695,2.018-2.172c-0.123-1.03,1.597-0.962,1.144-2.005c0.87-0.12,1.921,0.027,2.499-0.428
			c0.554-0.436,0.618-1.496,0.961-2.459c0.458-0.111,1.285-0.312,2.103-0.51c0.235-0.761-1.31-1.661,0.193-2.23
			c0.132-0.05,0.525,0.587,0.752,0.853c0.393-0.629,0.633-1.361,1.138-1.729c0.564-0.411,1.368-0.492,2.074-0.719
			c-0.752-1.853-0.565-2.833,0.485-2.829c0.149,0.409,0.298,0.819,0.482,1.327c1.058-0.665,1.924-1.209,2.975-1.87
			c-0.496-0.564-0.898-1.022-1.406-1.601c0.988-0.327,1.977-1.003,2.827-0.86c1.533,0.258,1.878-0.68,2.383-1.632l-0.016,0.004
			c0.21-0.063,0.419-0.127,0.629-0.191c1.658-0.823,2.095-1.874,1.239-2.973c0.7-0.079,1.4-0.159,2.256-0.256
			c0.083-0.714,0.181-1.56,0.281-2.418c0.773-0.221,1.53-0.438,2.255-0.645c-0.449,0.429-0.897,0.858-1.759,1.683
			c0.992,0,1.378,0,1.765,0c-0.013-0.563-0.026-1.125-0.039-1.688c-0.006-0.119-0.012-0.237-0.018-0.356
			c0.096,0.014,0.203,0.006,0.286,0.046c0.419,0.2,0.832,0.412,1.115,0.553c0.566-1.046,0.854-2.444,1.551-2.692
			c1.713-0.61,2.905-1.569,3.735-3.115c0.112-0.208,0.419-0.536,0.507-0.5c1.566,0.651,1.66-0.797,2.275-1.528
			c0.331-0.393,0.726-0.816,1.184-1.001c1.1-0.446,2.255-0.759,3.648-1.21c-0.856-0.649-1.326-1.006-1.796-1.363
			c0.061-0.144,0.122-0.287,0.183-0.43c0.692,0.1,1.384,0.2,2.114,0.305c0.331-0.953,0.615-1.77,0.829-2.387
			c1.111-0.229,2.256-0.13,2.766-0.651c0.738-0.755,1.6-0.558,2.382-0.747c-0.467-2.76-0.429-2.864,1.967-3.086
			c1.166-0.108,1.978-0.538,2.312-1.701l-0.06,0.058c1.774-0.553,2.855-1.732,3.049-3.508c0.96-0.298,1.754-0.545,2.54-0.789
			c-0.138-0.508-0.215-0.793-0.28-1.033c1.089-0.411,2.175-0.82,3.299-1.244c-0.141-0.558-0.244-0.968-0.201-0.796
			c1.748-1.51,4.766-0.708,4.786-4.102c0.457,0.199,0.812,0.353,1.16,0.504c1.826-3.604,4.199-6.338,8.864-5.908
			c-0.244-0.666-0.464-1.269-0.828-2.262c1.435-0.327,2.774-0.631,4.332-0.986c0.084-0.183,0.334-0.727,0.651-1.418
			c0.443,0.515,0.688,0.801,1.072,1.248c0.826-1.069,1.438-2.401,2.478-3.053c1-0.626,1.946-2.655,3.647-0.953
			c-0.242,0.137-0.484,0.274-0.149,0.084C422.159,220.05,422.274,219.781,422.389,219.513z M763.737,190.764
			c0.227,0.303,0.455,0.606,0.682,0.909c0.103-0.137,0.206-0.274,0.309-0.411c-0.36-0.14-0.721-0.28-1.081-0.42
			c0.495-1.198-0.044-2.179-1.122-2.315c-2.784-0.353-4.904-2.111-7.373-3.096c-5.71-2.278-11.474-4.423-17.243-6.548
			c-1.666-0.614-3.403-1.085-5.145-1.438c-4.861-0.986-9.732-1.927-14.616-2.788c-4.799-0.846-9.604-1.697-14.436-2.309
			c-3.445-0.436-6.958-0.324-10.407-0.739c-5.14-0.619-10.242-1.545-15.375-2.233c-4.336-0.582-8.688-1.048-13.04-1.498
			c-3.45-0.357-6.941-0.417-10.361-0.952c-8.631-1.351-17.213-3.015-25.964-3.491c-4.078-0.221-8.146-0.869-12.218-0.87
			c-6.063-0.001-12.167,0.039-18.18,0.715c-9.201,1.035-18.34,2.623-27.504,3.986c-1.772,0.264-3.537,0.578-5.306,0.861
			c-0.849,0.136-1.276,0.519-0.766,1.751c6.262-0.817,12.513,0.549,18.866,0.962c-2.187,1.699-4.688,1.982-7.24,2.05
			c-1.884,0.05-4.114-0.573-5.581,0.224c-2.896,1.572-5.866,0.928-8.56,0.614c-3.763-0.439-6.991,0.264-10.26,1.788
			c-0.766,0.357-1.845,0.87-2.452,0.593c-1.931-0.882-3.648-0.447-5.486,0.15c-0.774,0.251-1.686,0.059-2.533,0.115
			c-0.431,0.029-0.871,0.117-1.28,0.257c-0.607,0.209-1.169,0.597-1.787,0.716c-1.438,0.277-2.895,0.47-4.35,0.638
			c-2.327,0.269-4.527,1.463-6.688,1.705c-5.07,0.568-9.479,2.781-14.123,4.429c-2.5,0.887-4.991,1.801-7.464,2.759
			c-3.875,1.5-8.4,1.232-11.706,4.304c-0.16,0.149-0.639-0.09-0.868,0.036c-2.029,1.114-4.629,0.557-6.458,2.393
			c-1.128,1.132-2.633,1.729-4.164,0.72c-0.661,0.623-1.325,1.63-1.701,1.532c-1.235-0.323-1.759,0.448-2.553,1.005
			c-0.591,0.415-1.444,0.441-2.164,0.688c-1.467,0.502-3.71,0.634-4.221,1.637c-1.105,2.168-3.395,1.214-4.634,2.514
			c-1.808-0.813-2.712,0.294-3.607,1.606c-0.307,0.449-0.892,0.731-1.389,1.024c-3.123,1.844-6.252,3.677-9.393,5.491
			c-0.504,0.291-1.136,0.742-1.605,0.641c-1.436-0.309-1.788,0.698-2.542,1.517c-2.144,2.331-4.462,4.49-7.91,4.763
			c-0.488,0.039-0.953,0.57-1.396,0.916c-0.453,0.354-0.802,0.911-1.304,1.119c-5.267,2.186-10.21,4.982-15.107,7.875
			c-1.272,0.751-2.722,1.225-3.93,2.058c-3.873,2.672-7.684,5.436-11.494,8.199c-2.55,1.849-5.079,3.729-7.575,5.65
			c-1.964,1.511-3.712,3.37-5.834,4.59c-2.182,1.254-4.192,2.603-5.992,4.356c-0.482,0.469-1.545,0.699-2.222,0.538
			c-1.548-0.367-2.233,0.721-2.329,1.639c-0.178,1.705-1.308,2.387-2.5,2.978c-1.933,0.958-4.006,1.633-5.933,2.6
			c-0.583,0.292-0.922,1.129-1.298,1.761c-0.65,1.094-1.001,2.514-1.914,3.269c-1.473,1.218-3.266,2.072-4.987,2.957
			c-1.375,0.707-3.074,0.928-3.409,2.888c-0.047,0.273-0.567,0.595-0.914,0.665c-1.476,0.3-2.934,0.547-3.323,2.378
			c-0.026,0.121-0.545,0.281-0.743,0.199c-1.174-0.485-1.777,0.452-2.202,1.094c-2.219,3.35-6.389,4.688-8.379,8.241
			c-2.7,1.014-3.447,4.744-6.792,4.893c-0.213,0.009-0.457,0.371-0.606,0.618c-0.845,1.409-1.58,2.894-2.544,4.215
			c-0.315,0.432-1.202,0.448-1.97,0.701c0.211,2.815-1.809,4.321-4.077,5.484c-1.677,0.86-2.984,1.935-3.769,3.658
			c-0.182,0.4-0.5,0.836-0.873,1.035c-2.085,1.115-4.186,2.163-4.595,4.877c-0.046,0.303-0.527,0.54-0.806,0.808
			c-1.897,1.822-3.743,3.701-5.705,5.45c-2.042,1.82-3.988,3.917-6.361,5.152c-2.404,1.251-2.383,3.985-4.275,5.368
			c0.733,1.381-0.552,1.944-1.147,2.768c-0.913,1.265-2.031,2.407-2.79,3.755c-2.148,3.814-4.148,7.711-6.227,11.564
			c-0.798,1.479-1.644,2.933-2.485,4.388c-3.436,5.948-6.935,11.86-10.303,17.847c-2.922,5.194-5.646,10.5-8.551,15.704
			c-4.237,7.59-9.406,14.56-14.428,21.636c-3.853,5.43-7.298,11.15-10.948,16.726c-2.01,3.071-3.917,6.227-6.145,9.135
			c-2.378,3.105-4.294,6.414-5.712,10.035c-2.033,5.188-4.064,10.376-6.098,15.563c-2.074,5.288-4.391,10.497-6.143,15.89
			c-1.249,3.843-1.833,7.876-3.403,11.679c-1.28,3.098-1.868,6.48-2.78,9.732c-1.747,6.228-3.585,12.431-5.227,18.686
			c-0.843,3.211-1.368,6.508-1.992,9.774c-0.706,3.695-1.358,7.401-2.042,11.101c-0.666,3.602-1.096,7.271-2.067,10.789
			c-2.343,8.49-5.564,16.689-6.686,25.568c-1.346,10.65-3.547,21.193-5.404,31.778c-0.791,4.507-1.557,9.022-2.498,13.499
			c-1.124,5.349-2.563,10.634-3.613,15.996c-1.405,7.177-1.622,14.446-1.098,21.74c0.164,2.277,0.079,4.582,0.392,6.835
			c0.532,3.833,1.345,7.626,1.94,11.451c0.962,6.182,1.77,12.389,2.779,18.564c0.989,6.047,2.12,12.072,3.242,18.097
			c1.014,5.447,2.097,10.881,3.156,16.32c0.963,4.95,1.915,9.903,2.906,14.847c1.193,5.957,3.127,11.667,5.559,17.238
			c2.164,4.956,4.758,9.759,5.792,15.158c0.223,1.165,0.631,2.306,1.051,3.421c1.609,4.279,3.086,8.619,4.943,12.788
			c1.519,3.41,3.384,6.685,5.329,9.878c1.647,2.703,3.874,5.066,5.413,7.821c3.703,6.625,7.033,13.459,11.073,19.898
			c3.295,5.252,6.852,10.325,10.66,15.214c2.925,3.755,6.195,7.257,8.074,11.736c0.26,0.619,0.72,1.231,1.245,1.647
			c1.552,1.231,2.015,2.951,2.365,4.75c2.167-0.253,2.761,0.502,3.138,4.06c3.874-1.301,3.487,2.217,4.468,4.097
			c0.579-0.107,1.027-0.189,1.479-0.272c0.187,0.902,0.326,1.574,0.357,1.724c1.493,1.149,2.7,1.953,3.749,2.926
			c0.811,0.752,1.253,2.096,2.161,2.506c1.864,0.842,3.216,1.98,3.929,3.882c1.473-0.067,1.693,1.538,2.824,2.107
			c1.862,0.937,3.633,2.296,5.02,3.854c0.915,1.027,1.368,2.238,3.005,2.511c0.886,0.148,1.688,1.003,2.454,1.628
			c1.517,1.237,3.017,2.5,4.455,3.827c0.658,0.607,1.218,2.032,1.71,1.982c2.133-0.218,1.714,1.501,2.274,2.592
			c2.005-1.219,2.508,1.027,3.771,1.605c1.476,0.676,2.962,1.229,2.762,3.088c0.81,0.132,1.64,0.035,2.134,0.397
			c1.017,0.746,1.983,1.64,2.741,2.646c2.451,3.248,4.933,6.48,8.427,8.663c1.266,0.791,2.264,1.521,2.453,3.086
			c0.056,0.463,0.268,1.112,0.612,1.298c1.226,0.661,1.362,1.796,1.741,2.953c0.899,2.749,2.003,5.431,3.061,8.126
			c0.363,0.924,0.98,1.766,1.235,2.712c0.968,3.596,1.145,7.404,2.93,10.784c0.12,0.228,0.158,0.688,0.018,0.836
			c-1.94,2.058-0.007,4.389-0.392,6.618c-0.256,1.485-0.214,3.297-0.044,4.938c0.313,3.029-1.366,6.48,1.791,8.95
			c0.116,0.091,0.169,0.385,0.12,0.544c-0.693,2.273,0.264,4.83-1.513,6.99c-0.81,0.984-0.823,2.553,0.596,3.621
			c0.409,0.307,0.459,1.065,0.727,1.589c1.127,2.199,2.14,4.471,3.439,6.565c4.534,7.309,10.251,13.653,16.372,19.648
			c1.065,1.044,2.061,2.268,3.331,2.973c4.515,2.506,9.165,4.766,13.704,7.231c3.927,2.133,7.747,4.462,11.658,6.624
			c3.802,2.102,7.371,4.685,12.001,4.945c2.865,0.161,5.695,0.892,8.551,1.292c0.687,0.096,1.415-0.107,2.125-0.172
			c0.006-0.176,0.011-0.351,0.017-0.527c-1.426-0.354-2.853-0.708-4.609-1.144c2-0.917,2.701-0.933,4.219-0.275
			c0.98,0.425,2.042,1.328,2.929,1.181c2.926-0.486,5.717,0.245,8.54,0.563c2.438,0.275,4.933,0.461,7.29,0.891
			c3.27,0.597,6.192,0.543,9.251-1.07c0.128,0.729,0.234,1.331,0.32,1.817c2.531,0,4.924,0.283,7.215-0.081
			c2.198-0.349,4.289-1.368,6.312-2.053c1.49-1.502,2.971-2.994,4.378-4.412c1.089,0.247,1.987,0.451,3.28,0.745
			c-0.274-1.034-0.429-1.62-0.603-2.277c2.464-0.497,4.922-0.993,7.421-1.497c0-0.336,0-0.775,0-1.061
			c2.039-0.443,3.903-0.847,5.767-1.252c-0.077,0.253-0.154,0.506-0.231,0.759c0.171,0.037,0.343,0.074,0.514,0.111
			c0.023-0.295,0.046-0.59,0.07-0.885c2.426-0.389,4.852-0.771,7.275-1.175c0.285-0.048,0.541-0.273,0.826-0.323
			c0.718-0.125,1.443-0.247,2.169-0.28c1.59-0.072,3.738,0.536,4.646-0.272c1.402-1.247,2.693-0.711,4.036-0.898
			c0.685-0.095,1.498,0.076,2.044-0.238c1.623-0.933,3.526,0.571,5.053-0.697c4.222,0.969,8.564-0.27,12.786,0.695
			c1.332-1.015,2.72,0.573,3.728,0.146c1.642-0.695,3.052-0.167,4.559-0.02c1.316,0.128,2.648,0.537,3.937,0.424
			c3.317-0.291,6.608-0.871,9.923-1.21c4.435-0.454,8.875-0.92,13.325-1.138c4.275-0.209,8.632-0.594,12.83-0.016
			c4.909,0.677,9.706,0.138,14.539-0.072c8.468-0.369,16.926-0.97,25.39-1.433c2.372-0.13,4.773,0.067,7.122-0.212
			c4.228-0.504,8.369-1.401,12.714-1.161c4.642,0.257,9.319-0.192,13.982-0.253c4.939-0.064,9.873,0.141,14.74-1.137
			c2.178-0.572,4.507-0.541,6.75-0.899c3.632-0.58,7.271-1.151,10.865-1.926c2.879-0.621,5.665-2.041,8.544-2.209
			c4.606-0.27,8.877-1.635,13.232-2.823c1.524-0.416,3.055-0.858,4.613-1.088c4.291-0.632,8.68-0.806,12.879-1.8
			c8.554-2.026,17.336-2.788,25.852-5.004c3.919-1.02,8.016-1.347,11.953-2.314c3.653-0.897,7.241-2.116,10.779-3.407
			c2.031-0.742,3.854-2.038,5.863-2.858c4.114-1.68,8.301-3.18,12.438-4.806c3.428-1.348,6.845-2.727,10.229-4.179
			c2.281-0.979,4.536-2.037,6.731-3.196c2.052-1.083,3.994-2.373,6.012-3.523c1.899-1.082,3.931-1.957,5.735-3.175
			c4.407-2.977,8.598-6.267,13.636-8.227c2.709-1.054,5.373-2.171,7.917-3.718c2.807-1.707,6.26-2.263,9.094-4.099
			c0.158-0.102,0.384-0.139,0.578-0.137c2.453,0.02,4.098-1.601,5.914-2.884c4.404-3.111,8.762-6.289,13.241-9.289
			c2.871-1.922,5.783-3.893,8.929-5.263c3.698-1.61,6.623-4.047,9.397-6.819c0.838-0.837,1.856-1.497,2.678-2.347
			c2.796-2.89,6.43-4.686,9.354-7.507c2.999-2.893,6.436-5.339,9.405-8.372c2.057-2.102,4.197-4.566,7.527-4.996
			c0.328-0.042,0.604-0.486,0.905-0.742c1.961-1.661,3.896-3.353,5.89-4.974c2.226-1.81,4.435-3.656,6.781-5.299
			c2.283-1.599,3.983-3.8,6.106-5.583c4.846-4.069,9.756-8.031,14.816-11.824c1.931-1.448,4.133-2.735,4.484-5.532
			c0.046-0.369,0.592-0.673,0.903-1.011c0.414-0.451,0.991-0.839,1.199-1.372c0.353-0.903,0.457-1.79,1.345-2.528
			c0.648-0.538,0.728-1.742,1.099-2.634c0.596-1.434,0.89-3.183,1.905-4.215c2.327-2.367,3.783-5.249,5.597-7.931
			c1.818-2.689,3.185-6.141,7.466-5.998c-1.104,1.967-2.145,4.051-3.396,6c-2.551,3.974-5.317,7.813-7.808,11.823
			c-3.142,5.058-6.257,10.091-10.843,14.044c-2.283,1.967-4.346,4.188-6.537,6.264c-1.229,1.165-2.492,2.297-3.78,3.395
			c-6.386,5.445-12.74,10.93-19.196,16.291c-4.699,3.902-9.551,7.618-14.309,11.449c-1.151,0.927-2.257,1.924-3.287,2.984
			c-4.227,4.35-8.586,8.534-13.787,11.741c-0.84,0.518-1.604,1.158-2.404,1.742c1.049,0.255,1.841,0.146,2.492-0.216
			c2.526-1.402,4.894-3.055,7.047-4.981c3.638-3.254,8.331-4.42,12.657-6.186c4.238-1.73,8.332-3.738,12.468-5.654
			c5.19-2.403,9.496-6.233,14.213-9.402c3.678-2.47,6.373-6.088,10.142-8.448c0.792-0.496,1.178-1.831,1.977-2.096
			c3.533-1.169,4.966-5.104,8.476-6.218c0.816-1.659,2.402-2.59,3.799-3.559c1.356-0.941,2.124-2.411,4.051-3.017
			c1.883-0.591,3.395-2.731,5.191-4.08c1.685-1.267,3.112-3.028,4.249-4.827c1.117-1.766,3.843-1.987,4.05-4.484
			c2.593-2.721,5.131-5.497,7.798-8.144c1.869-1.855,2.907-4.164,4.011-6.46c0.199-0.414,0.25-0.954,0.55-1.256
			c1.132-1.136,2.423-2.121,3.493-3.308c1.107-1.229,2.146-2.554,3.001-3.967c2.019-3.338,3.415-6.956,6.244-9.918
			c3.242-3.394,5.734-7.503,8.563-11.293c0.632-0.847,1.399-1.605,1.95-2.5c2.661-4.324,5.255-8.69,7.906-13.021
			c0.765-1.249,1.692-2.399,2.455-3.649c1.567-2.567,3.039-5.192,4.614-7.754c1.717-2.793,3.562-5.508,5.235-8.326
			c0.576-0.97,0.529-2.389,1.236-3.187c1.964-2.216,3.353-4.824,5.146-7.108c2.192-2.79,3.376-6.086,4.464-9.191
			c1.051-3.001,2.109-6.156,2.65-9.461c0.787-4.812,0.851-9.647,1.48-14.439c0.685-5.217-0.272-10.51,0.969-15.698
			c0.581-2.428,0.871-4.932,1.173-7.416c0.557-4.585,0.938-9.193,1.558-13.768c0.501-3.695,1.271-7.352,1.868-11.035
			c0.186-1.145,0.077-2.343,0.313-3.473c0.495-2.362,1.106-4.701,1.717-7.038c0.24-0.919,0.729-1.784,0.894-2.711
			c0.479-2.695,0.874-5.405,1.258-8.115c0.305-2.158,0.558-4.324,0.811-6.489c0.369-3.163,0.215-6.373,0.865-9.511
			c0.099-0.48,0.316-0.992,0.231-1.444c-0.561-2.992,0.144-5.958,0.123-8.937c-0.018-2.541,0.108-5.083,0.182-7.624
			c0.042-1.464-0.292-2.896-0.215-4.401c0.05-0.99,1.276-2.54-0.37-3.493c0.911-1.665,0.929-3.374,0.456-5.487
			c-1.281,2.293-1.332,4.078-0.354,5.531c-0.313,0.215-0.819,0.37-0.909,0.656c-0.586,1.865-1.07,3.762-1.612,5.642
			c-0.751,2.607-0.71,5.371-1.992,7.903c-1.243,2.453-2.416,5.076-2.879,7.752c-0.497,2.88-1.765,5.402-2.632,8.1
			c-0.152,0.472-0.271,0.958-0.36,1.446c-0.602,3.264-1.223,6.525-1.777,9.797c-0.557,3.289-1.029,6.592-1.567,9.884
			c-0.429,2.628-0.78,5.277-1.386,7.865c-0.637,2.723-1.543,5.382-2.319,8.073c-0.767,2.659-1.458,5.343-2.294,7.98
			c-1.104,3.482-2.283,6.942-3.49,10.39c-1.315,3.755-2.669,7.498-4.062,11.225c-0.944,2.526-2.142,4.969-2.922,7.541
			c-0.456,1.505-0.537,3.082-1.655,4.355c-0.44,0.502-0.741,1.224-0.863,1.89c-0.714,3.922-3.008,7.182-4.544,10.747
			c-2.155,4.998-4.852,9.762-7.292,14.638c-2.024,4.046-3.982,8.125-6.028,12.16c-0.895,1.766-1.98,3.435-2.901,5.19
			c-1.825,3.478-3.529,7.02-5.404,10.47c-2.219,4.083-4.547,8.108-6.862,12.139c-2.22,3.865-4.464,7.717-6.748,11.545
			c-0.419,0.702-1.081,1.258-1.631,1.881c-0.389-0.644-0.473-1.141-0.277-1.474c1.981-3.368,3.392-7.025,5.669-10.263
			c2.703-3.845,4.317-8.352,6.865-12.319c0.428-0.666,0.976-1.309,1.192-2.045c0.551-1.876,0.24-4.152,2.595-5.103
			c1.832-4.107,3.651-8.221,5.502-12.32c0.973-2.155,1.883-4.352,3.033-6.411c1.433-2.567,2.816-5.135,3.636-7.973
			c0.165-0.572,0.187-1.379,0.577-1.661c2.252-1.63,2.618-4.362,3.936-6.523c1.387-2.275,2.52-4.713,3.643-7.137
			c0.614-1.326,0.822-2.853,1.512-4.126c0.426-0.786,0.698-1.409,0.811-2.35c0.246-2.043,0.621-4.252,1.645-5.977
			c1.369-2.308,1.883-2.959,1.883-5.693c0-0.855,0.176-1.836,0.62-2.539c1.183-1.875,1.208-3.941,1.476-6.018
			c0.21-1.626,0.444-3.549,1.418-4.708c1.588-1.888,1.736-4.006,2.207-6.168c0.67-3.078,1.138-6.302,2.455-9.106
			c1.22-2.598,2.411-5.164,3.263-7.902c0.289-0.93,0.84-1.781,1.106-2.714c0.55-1.93,1.463-3.916,1.368-5.836
			c-0.164-3.318,0.766-6.419,1.171-9.615c0.281-2.22,0.944-4.388,1.357-6.595c0.432-2.315,0.736-4.653,1.16-6.969
			c0.266-1.45,0.36-3.035,1.036-4.287c1.869-3.46,2.68-7.252,3.349-11c0.313-1.752,0.956-3.395,1.187-5.123
			c0.189-1.407,0.024-2.713,0.816-4.157c0.665-1.212,0.111-3.085,0.129-4.664c0.003-0.286,0.083-0.636,0.259-0.846
			c1.044-1.245,0.997-2.705,1.042-4.209c0.035-1.172,0.428-2.33,0.63-3.5c0.307-1.782,0.938-3.579-0.221-5.316
			c1.446-0.789,2.313-1.666,0.942-3.232c-0.219-0.251-0.147-0.895-0.014-1.292c0.589-1.756,2.161-3.413,0.327-5.36
			c-0.163-0.173,0.106-1.124,0.414-1.304c1.464-0.855,1.283-1.946,0.865-3.304c-0.196-0.635,0.208-1.438,0.268-2.171
			c0.107-1.322,0.161-2.648,0.236-3.973c0,0-0.787-3.677-0.655-3.057c0.75-1.241,1.261-2.087,1.762-2.917
			c-0.641-0.558-1.061-0.924-1.302-1.133c0.12-1.291,0.285-2.343,0.302-3.397c0.031-1.878-0.074-3.759-0.039-5.636
			c0.072-3.863,0.689-7.714-0.833-11.521c-0.633-1.583-0.862-3.545-0.598-5.228c0.719-4.58-0.032-9.03-0.536-13.533
			c-0.684-6.113-2.417-11.946-4.342-17.75c-1.247-3.76-3.694-7.03-4.258-11.08c-0.402-2.886-1.505-5.701-1.683-8.585
			c-0.244-3.973-2.146-7.447-2.794-11.277c-0.281-1.662-1.663-3.284-1.524-4.832c0.154-1.714-1.117-2.927-0.702-4.785
			c0.433-1.94-0.124-4.312-0.867-6.259c-1.287-3.373-3.021-6.579-4.627-9.826c-0.857-1.733-2.037-3.329-2.716-5.121
			c-0.942-2.483-1.504-5.106-2.313-7.642c-0.946-2.966-2.595-5.856-2.823-8.863c-0.265-3.499-2.227-6.143-3.163-9.251
			c-0.846-2.81-1.692-5.628-2.335-8.488c-1.024-4.559-1.017-9.269-2.508-13.81c-0.946-2.88-0.954-6.047-2.357-8.917
			c-1.019-2.084-1.414-4.455-2.943-6.34c-0.409-0.504-0.498-1.279-0.697-1.941c-0.364-1.204-0.607-2.454-1.069-3.617
			c-0.877-2.206-1.913-4.348-2.804-6.55c-0.477-1.18-0.689-2.47-1.205-3.629c-0.447-1.003-1.846-2.138-1.615-2.78
			c0.67-1.864-1.468-1.855-1.645-3.142c-0.133-0.964-1.235-1.756-1.599-2.738c-0.259-0.7-0.387-0.981-1.196-1.288
			c-1.495-0.568-1.965-2.302-1.325-3.75c0.305-0.692,0.772-1.313,1.273-2.145c-2.661-1.301-3.591-3.423-3.77-6.078
			c-0.061-0.908-0.71-1.777-1.13-2.758c0.53,0,1.067,0,1.576,0c0.494-1.567,0.133-2.818-0.817-3.98
			c-0.29-0.354-0.67-1.102-0.532-1.266c1.06-1.255-0.094-1.682-0.715-2.393c-0.336-0.385-0.473-0.975-0.605-1.496
			c-0.166-0.655-0.137-1.369-0.361-1.998c-1.161-3.265-2.24-6.612-2.978-9.938c-0.658-2.968-1.81-5.719-2.614-8.602
			c-0.324-1.162-1.482-2.102-1.758-3.263c-0.752-3.157-1.053-6.426-1.89-9.556c-0.555-2.076-0.232-4.465-1.983-6.207
			c-0.367-0.365-0.294-1.142-0.511-1.695c-0.659-1.678-1.26-3.39-2.067-4.997c-1.463-2.913-2.331-6.066-3.474-9.084
			c-1.411-3.725-2.712-7.367-5.411-10.377c-2.593-2.892-5.222-5.757-7.678-8.762c-3.01-3.682-6.559-6.624-10.862-8.642
			c-5.062-2.375-9.528-5.607-13.817-9.172c-2.008-1.669-4.382-2.969-7.237-3.395c-0.083,0.561-0.308,1.187-0.169,1.282
			c1.691,1.158,1.779,2.927,2.008,4.704c0.186,1.449,0.356,2.973,0.937,4.285c1.241,2.803,1.037,5.702,1.03,8.614
			c-0.001,0.557,0.061,1.127,0.185,1.67c0.36,1.578,0.919,3.129,1.104,4.724c0.141,1.213-0.17,2.479-0.283,3.755
			c2.76-0.203,0.829,1.632,1.287,2.394c0.422,0.156,0.843,0.313,1.412,0.524c-0.53,0.693-0.971,1.271-1.479,1.936
			c-0.48-0.886-0.779-2.081-1.22-2.135c-1.451-0.18-1.009-1.243-1.232-1.987c-0.744-2.492-1.375-5.021-2.214-7.48
			c-0.731-2.14-1.379-4.409-2.612-6.253c-2.105-3.15-3.266-6.598-3.604-10.225c-0.24-2.563-0.734-4.798-2.467-6.716
			c-0.326-0.361-0.513-0.848-0.755-1.282c-2.569-4.621-6.221-8.068-11.045-10.275c-1.578-0.721-2.545-2.453-4.446-2.695
			c-0.699-0.089-1.663-0.165-2.008-0.623c-2.047-2.721-4.867-4.356-7.769-5.918c-0.784-0.422-1.535-0.908-2.293-1.378
			c-1.944-1.206-3.764-2.707-5.848-3.57c-4.072-1.687-8.093-3.718-12.71-3.585c-0.527,0.015-1.08-0.382-1.596-0.637
			c-0.519-0.257-0.977-0.738-1.515-0.84c-4.731-0.895-9.07-2.925-13.532-4.597c-4.088-1.531-8.15-3.14-12.28-4.548
			c-2.814-0.959-5.839-1.36-8.569-2.493c-4.481-1.86-8.809-4.09-13.18-6.209c-1.77-0.858-3.408-2.033-5.236-2.717
			c-4.554-1.703-9.138-3.362-13.796-4.745c-4.193-1.244-8.533-1.985-12.748-3.16c-3.468-0.967-6.849-2.173-10.546-1.835
			c-3.247,0.297-6.595,0.086-9.728,0.823c-2.232,0.525-4.474,0.336-6.671,0.636c-1.714,0.234-3.418,0.301-5.081,0.944
			c-0.76,0.294-1.942,0.708-2.391,0.363c-1.205-0.928-2.327-0.193-3.449-0.211c-1.966-0.031-3.934,0.185-5.903,0.251
			c-3,0.101-6.001,0.184-9.003,0.233c-3.018,0.049-6.021,0.069-8.942-0.989c-0.987-0.357-2.648,0.168-3.129-0.422
			c-1.233-1.511-2.813-1.55-4.407-1.878c-2.084-0.429-4.146-1.267-6.231-1.31c-2.536-0.052-4.729-0.972-6.994-1.786
			c-1.286-0.462-2.505-1.108-3.754-1.671c-1.358-0.612-2.677-1.582-4.085-1.736c-1.439-0.157-2.027-1.337-3.184-1.74
			c-3.868-1.347-7.702-2.791-11.558-4.174c-0.654-0.234-1.344-0.464-2.028-0.503c-4.762-0.274-9.343-1.45-13.956-2.551
			c-1.877-0.448-3.903-0.315-5.864-0.347c-1.363-0.022-2.728,0.126-4.081,0.198c-0.564-1.582,0.291-1.963,1.446-1.878
			c2.648,0.195,5.288,0.49,8.039,0.755c0.155-0.242,0.402-0.628,0.629-0.983c1.129,0.155,2.222,0.513,3.269,0.41
			c3.272-0.324,6.474,0.153,9.484,1.218c1.433,0.507,2.73-0.201,4.236,0.557c3.292,1.656,6.91,2.664,10.479,3.967
			c0.532,2.464,2.662,3.199,4.851,3.821c0.851,0.242,1.968,0.064,2.574,0.556c2.146,1.745,4.884,1.581,7.269,2.513
			c1.526,0.596,3.359,1.456,4.753,1.079c1.778-0.48,1.898,0.869,2.753,1.394c1.071-1.278,2.468-0.949,3.818-0.728
			c0.585,0.095,1.138,0.454,1.72,0.496c4.97,0.357,9.944,0.64,14.913,1.014c1.176,0.089,2.347,0.672,3.495,0.603
			c1.43-0.086,2.737-1.057,4.316-0.106c0.509,0.306,1.769-0.76,2.394-0.5c2.876,1.201,5.454-0.809,8.3-0.56
			c1.874,0.164,3.973-0.215,5.972-0.283c0.437-0.015,1.113,0.775,1.302,0.646c2.049-1.409,4.453-0.424,6.526-1.231
			c0.382,0.607,0.677,1.076,0.945,1.501C762.393,191.596,763.062,191.181,763.737,190.764z M338.08,1003.668
			c-1.812,1.631-2.126,3.052-0.879,5.038c1.922,3.061,1.931,7.076,4.839,9.646c0.191,0.169,0.175,0.563,0.278,0.844
			c0.721,1.967,1.535,3.793,3.713,4.689c1.076,0.442,2.109,1.21,2.906,2.067c2.039,2.193,4.459,3.384,7.436,3.743
			c1.439,0.174,2.844,0.814,4.201,1.392c0.592,0.252,1.362,0.809,1.47,1.345c0.354,1.76,1.504,2.227,3.016,2.825
			c1.761,0.697,3.52,1.129,5.327,1.615c3.66,0.983,7.337,1.078,11.043,1.317c2.322,0.149,4.69-0.323,6.913,1.16
			c1.129,0.753,2.813,0.856,4.258,0.909c2.124,0.079,4.265-0.075,6.388-0.26c6.065-0.529,12.185,0.352,18.226-0.728
			c4.684-0.837,9.35-1.588,13.313-4.659c1.132-0.877,1.734-1.836,2.152-3.021c0.844-2.391,1.034-2.586,3.514-2.761
			c0.687-0.048,1.372-0.114,2.059-0.172c-0.349-2.174,1.842-0.88,2.581-1.702c-0.293-0.332-0.479-0.73-0.669-0.732
			c-4.533-0.044-8.997-1.232-13.568-0.732c-2.259,0.247-4.578,0.548-6.813,0.305c-8.311-0.902-16.608-1.954-24.889-3.106
			c-1.822-0.253-3.698-0.895-5.299-1.8c-4.191-2.371-8.149-5.162-12.379-7.457c-4.196-2.277-8.635-4.102-12.916-6.229
			c-1.755-0.872-3.418-1.954-5.047-3.052c-2.341-1.578-4.031-3.798-5.845-5.932c-1.835-2.158-4.193-3.864-6.117-5.956
			c-1.652-1.796-3.543-3.663-4.354-5.859c-0.79-2.136-2.352-3.197-3.7-4.887c-1.627,1.946-3.014,3.822-2.237,6.254
			c0.38,1.189,0.728,2.223,0.28,3.415c-0.652,1.736,1.518,3.815-0.645,5.377c-0.035,0.025-0.007,0.238,0.049,0.272
			c2,1.25,0.57,2.919,0.602,4.427C337.3,1001.977,337.738,1002.681,338.08,1003.668z M794.471,195.158
			c-0.012,0.205-0.023,0.411-0.035,0.616c1.002,0.342,1.983,0.864,3.012,0.989c2.13,0.259,3.853,1.692,6.184,1.642
			c1.566-0.033,3.819,0.867,4.604,2.093c1.548,2.417,4.02,2.758,6.144,3.898c0.867,0.465,1.849,0.718,2.705,1.199
			c3.443,1.932,7.059,3.34,10.87,4.442c5.444,1.574,10.769,3.566,16.128,5.428c4.689,1.629,9.342,3.358,14.035,4.973
			c1.972,0.678,4.005,1.178,6.011,1.756c1.596,0.46,3.176,0.998,4.795,1.353c2.822,0.619,5.574,1.363,8.002,3.02
			c4.017,2.743,8.037,5.478,12.741,6.985c0.727,0.233,1.38,0.749,2.017,1.204c1.608,1.148,3.217,2.301,4.77,3.521
			c1.048,0.823,1.943,0.672,3.125-0.149c-0.701-1.891-1.734-3.414-2.968-4.849c-1.86-2.162-3.795-4.28-5.443-6.597
			c-0.999-1.404-1.777-2.953-3.081-4.138c-1.622-1.475-3.319-2.889-4.789-4.506c-2.696-2.963-6.353-4.368-9.7-6.277
			c-2.054-1.172-4.159-2.257-6.252-3.359c-2.647-1.394-5.184-3.133-7.987-4.069c-5.126-1.713-10.538-2.241-15.888-2.961
			c-0.929-0.125-2.066-0.296-2.681-0.888c-2.202-2.118-4.789-2.196-7.531-1.858c-2.359,0.29-4.693,0.532-6.964-0.563
			c-0.589-0.284-1.368-0.167-2.058-0.248c-2.918-0.346-5.857-0.568-8.746-1.079c-3.846-0.681-7.717-1.338-11.184-3.377
			c-0.807-0.475-1.867-0.606-2.832-0.714c-3.192-0.357-4.442,0.338-5.118,2.706C795.729,195.286,795.1,195.222,794.471,195.158z
			 M480.42,1016.542c1.522,1.413,2.663,0.392,3.881-0.136c-0.033-0.223-0.067-0.446-0.1-0.669
			C482.94,1016.006,481.68,1016.274,480.42,1016.542z M794.175,965.77c-0.197,0.099-0.395,0.198-0.592,0.297
			c0,0.623,0,1.245,0,2.126c0.719-0.343,1.22-0.581,1.968-0.938C794.986,966.644,794.581,966.207,794.175,965.77z M1042.583,545.761
			c0.399-1.547,0.399-1.547-1.268-2.383C1041.795,544.281,1042.189,545.021,1042.583,545.761z M1042.381,542.581
			c0-1.187,0-1.915,0-2.862C1040.789,540.567,1040.986,541.312,1042.381,542.581z M814.276,954.586
			c-0.092-0.212-0.183-0.425-0.275-0.637c-0.927,0.423-1.854,0.846-2.78,1.268c0.077,0.166,0.155,0.331,0.232,0.497
			C812.393,955.339,813.335,954.963,814.276,954.586z M485.941,1016.43c0.886-0.172,1.772-0.343,2.658-0.515
			C487.511,1015.009,486.541,1014.682,485.941,1016.43z M542.916,173.604c-1.817-0.857-1.817-0.857-2.148,0.524
			C541.464,173.958,542.071,173.81,542.916,173.604z M506.545,181.52c-0.732-0.62-1.138-0.965-1.761-1.493
			c-0.213,0.893-0.363,1.524-0.609,2.553C505.12,182.157,505.625,181.931,506.545,181.52z M493.185,1015.552
			c-0.279-1.277-0.818-1.622-2.155-0.695C492.021,1015.177,492.603,1015.365,493.185,1015.552z M508.477,179.213
			c-0.028,0.233-0.056,0.467-0.083,0.7c0.672,0.085,1.343,0.169,2.015,0.254c0.031-0.229,0.063-0.458,0.094-0.688
			C509.827,179.39,509.152,179.302,508.477,179.213z M1042.701,549.315c0.083,1.307,0.126,2.005,0.188,2.973
			C1044.17,551.197,1043.434,550.566,1042.701,549.315z M512.613,178.726c-0.168-0.158-0.335-0.316-0.503-0.474
			c-0.302,0.293-0.622,0.571-0.878,0.899c-0.028,0.036,0.318,0.363,0.49,0.554C512.019,179.379,512.316,179.052,512.613,178.726z
			 M523.755,177.23c0.242,0.021,0.483,0.043,0.725,0.064c0.032-0.446,0.064-0.891,0.095-1.337c-0.273-0.007-0.547-0.013-0.82-0.02
			C523.755,176.369,523.755,176.799,523.755,177.23z M290.258,331.446c0.308,0.307,0.615,0.614,0.923,0.921
			c0.366-0.456,0.732-0.912,1.099-1.368c-0.187-0.165-0.374-0.33-0.56-0.495C291.232,330.818,290.745,331.132,290.258,331.446z
			 M1043.187,561.13c-0.191-0.011-0.383-0.023-0.574-0.035c-0.028,0.475-0.055,0.95-0.083,1.425c0.189,0.01,0.377,0.02,0.566,0.03
			C1043.126,562.077,1043.156,561.604,1043.187,561.13z M807.178,957.279c0.028,0.213,0.055,0.425,0.083,0.638
			c0.473-0.031,0.946-0.062,1.419-0.093c-0.005-0.182-0.01-0.363-0.016-0.545C808.169,957.279,807.674,957.279,807.178,957.279z
			 M537.462,173.501c0.06,0.153,0.12,0.305,0.18,0.458c0.373-0.105,0.746-0.21,1.119-0.315c-0.048-0.164-0.096-0.328-0.145-0.492
			C538.231,173.269,537.846,173.385,537.462,173.501z M560.12,170.285c-0.025-0.221-0.05-0.442-0.075-0.663
			c-0.472,0.085-0.945,0.17-1.417,0.255c0.014,0.136,0.028,0.272,0.042,0.408C559.154,170.285,559.637,170.285,560.12,170.285z
			 M413.151,226.079c-0.359-0.274-0.538-0.478-0.761-0.553c-0.122-0.041-0.317,0.137-0.479,0.216
			c0.134,0.205,0.227,0.504,0.415,0.587C412.482,226.398,412.75,226.212,413.151,226.079z M478.91,1017.468
			c-0.049-0.122-0.098-0.244-0.147-0.365c-0.466,0.174-0.931,0.347-1.397,0.521c0.06,0.152,0.119,0.304,0.179,0.456
			C478,1017.876,478.455,1017.672,478.91,1017.468z M509.294,181.366c-0.519-0.247-0.809-0.438-1.124-0.497
			c-0.081-0.015-0.388,0.453-0.33,0.576c0.096,0.204,0.394,0.401,0.625,0.425C508.648,181.889,508.859,181.645,509.294,181.366z
			 M195.339,767.699c-0.097,0.134-0.267,0.267-0.271,0.404c-0.004,0.158,0.139,0.32,0.217,0.48c0.149-0.175,0.327-0.337,0.425-0.537
			C195.732,768.001,195.471,767.818,195.339,767.699z M551.712,171.025c-0.114-0.256-0.18-0.542-0.253-0.544
			c-0.265-0.006-0.532,0.083-0.799,0.137c0.08,0.164,0.136,0.445,0.245,0.467C551.148,171.134,551.417,171.055,551.712,171.025z
			 M981.928,362.415c-0.082-0.158-0.129-0.37-0.259-0.457c-0.097-0.065-0.302,0.032-0.458,0.056c0.085,0.152,0.137,0.356,0.266,0.44
			C981.577,362.52,981.774,362.436,981.928,362.415z M438.817,211.38c-0.065-0.16-0.13-0.32-0.194-0.48
			c-0.153,0.063-0.306,0.125-0.459,0.188c0.084,0.2,0.167,0.401,0.251,0.601C438.549,211.586,438.683,211.483,438.817,211.38z
			 M534.62,174.831c0.068-0.033,0.173-0.051,0.195-0.104c0.023-0.055-0.033-0.143-0.054-0.217c-0.103,0.058-0.206,0.117-0.309,0.175
			C534.508,174.734,534.564,174.783,534.62,174.831z M473.251,1018.185c-0.062-0.143-0.124-0.286-0.186-0.429
			c-0.152,0.082-0.305,0.163-0.457,0.245c0.095,0.174,0.19,0.349,0.285,0.523C473.012,1018.411,473.131,1018.298,473.251,1018.185z
			 M547.206,172.268c0.185,0.032,0.37,0.064,0.555,0.097c0.05-0.338,0.118-0.676,0.127-1.015c0.001-0.041-0.321-0.09-0.493-0.135
			C547.332,171.566,547.269,171.917,547.206,172.268z"/>
		<path d="M745.424,990.683c0.071,0.913,0.32,1.595,0.105,1.807c-0.826,0.814-1.744,2.004-2.729,2.109
			c-5.524,0.589-10.016,3.569-14.782,5.944c-1.922,0.957-3.915,1.77-5.877,2.646c-2.759,1.232-5.489,2.537-8.291,3.66
			c-1.325,0.531-2.774,0.808-4.194,1.03c-3.554,0.555-6.587,2.476-9.89,3.683c-3.394,1.24-6.654,2.853-10.454,2.061
			c-0.74-0.154-1.652-0.069-2.343,0.232c-3.799,1.649-7.867,1.829-11.878,2.132c-2.642,0.199-5.325-0.196-7.99-0.238
			c-2.683-0.042-5.368,0.033-8.052,0.037c-0.867,0.002-1.737-0.023-2.599-0.101c-0.491-0.044-1.144-0.484-1.427-0.297
			c-3.087,2.038-6.397-0.23-9.594,0.562c-1.641,0.406-3.53-0.165-5.304-0.332c-1.508-0.142-3.036-0.592-4.509-0.447
			c-2.079,0.205-4.045-0.194-6.062-0.414c-0.892-0.097-1.838,0.309-2.937,0.521c-0.131-0.156-0.45-0.877-0.802-0.893
			c-1.229-0.058-2.489,0.023-3.701,0.247c-1.557,0.287-2.993,0.404-4.484-0.413c-0.737-0.404-1.781-0.528-2.629-0.4
			c-4.202,0.635-8.371-0.084-12.571-0.093c-0.551-0.748-1.077-1.462-1.609-2.185c3.187-0.792,5.965-0.72,8.949,0.227
			c0.155,0.049,0.371,0.174,0.463,0.115c2.513-1.617,5.35-0.016,7.951-0.799c0.32-0.096,0.831,0.015,1.091,0.228
			c0.78,0.638,1.397,0.919,2.327,0.109c0.425-0.37,1.341-0.381,1.982-0.264c2.75,0.502,5.588,0.01,8.324,0.882
			c0.817,0.26,2.107-0.704,2.795-0.352c1.188,0.608,2.35-1.385,3.54,0.273c0.292,0.407,2.14-0.356,3.284-0.486
			c0.575-0.065,1.302-0.112,1.735,0.174c0.86,0.568,1.574,0.749,2.407,0.045c0.124-0.105,0.412-0.122,0.576-0.057
			c2.216,0.869,4.443-0.301,6.735,0.123c2.186,0.405,4.537,0.115,6.793-0.1c2.63-0.251,5.262,0.003,7.916-0.234
			c2.614-0.233,5.431-0.101,8.156-0.013c2.887,0.093,5.791,0.179,8.665-0.032c1.788-0.131,3.541-0.796,5.297-1.268
			c0.802-0.215,1.518-1.132,2.429-0.186c0.089,0.092,0.64-0.037,0.664-0.138c0.448-1.882,2.437-1.592,3.431-1.76
			c2.177-0.367,4.058-1.745,6.449-1.546c1.03,0.086,2.489-0.808,3.52-1.375c1.814-0.998,3.519-1.719,5.571-1.612
			c0.477-2.092,3.853-0.142,3.917-2.81c1.703,0.374,2.68-1.725,3.698-1.624c2.415,0.24,3.663-2.756,6.14-1.8
			c0.281,0.109,0.802-0.473,1.238-0.68c0.891-0.422,1.765-0.979,2.709-1.173c2.598-0.533,5.28-0.713,7.829-1.403
			c2.144-0.581,4.147-1.682,6.212-2.553C744.05,991.262,744.49,991.077,745.424,990.683z"/>
		<path d="M265.768,364.172c-1.115,2.094-2.23,4.189-3.532,6.634c0.89,1.488,0.589,2.771-1.638,3.719
			c-1.088,0.463-1.713,1.952-2.63,2.896c-1.275,1.314-2.663,2.518-3.934,3.836c-0.732,0.759-1.288,1.685-2.005,2.462
			c-0.339,0.368-0.867,0.561-1.31,0.833c-0.181-0.484-0.565-0.996-0.501-1.445c0.148-1.041,0.512-2.05,0.79-3.077
			c2.586,0.695,2.991-2.209,4.926-3.01c-1.282-1.836-0.508-3.158,0.865-4.483c1.086-1.048,1.938-2.339,3.133-3.817
			c0.438,0,1.423,0,2.63,0c-1.435-2.35,0.713-5.951,3.323-6.292c0,0-0.085-0.094-0.085-0.094c-0.403,0.649-1.03,1.301,0.026,1.931
			L265.768,364.172z M258.421,374.968c0.161-0.831,0.322-1.661,0.483-2.492c-1.43,0.754-0.575,1.632-0.474,2.488
			c-0.23-0.168-0.441-0.424-0.697-0.48c-0.289-0.064-0.618,0.048-0.927,0.099c-0.013,0.002-0.013,0.251,0.008,0.255
			c0.28,0.059,0.563,0.11,0.848,0.132C257.914,374.991,258.168,374.971,258.421,374.968z"/>
		<path d="M241.139,393.586c0.339-0.461,0.589-1.156,1.038-1.325c0.621-0.234,1.512-0.295,2.053-0.001
			c0.353,0.192,0.608,1.349,0.366,1.727c-1.612,2.516-3.061,5.18-5.46,7.079c0.325-0.761,0.329-1.421-0.717-1.751
			c0.258,0.565,0.517,1.13,0.776,1.695c-0.443,2.35-0.889,4.696-3.618,5.56c-0.089,0.028-0.198,0.098-0.234,0.177
			c-1.067,2.331-3.048,2.464-5.481,2.11c1.19-0.944,2.237-1.789,3.305-2.606c0.139-0.107,0.501-0.008,0.562-0.117
			c0.544-0.961-1.109-3.011,0.876-2.982c1.993,0.029,1.342-1.905,2.479-2.311c0.221-0.079,0.342-0.649,0.377-1.006
			c0.163-1.654,0.187-1.593,2.065-2.809c0.425-0.275,0.678-1.17,0.629-1.747c-0.082-0.958,0.115-1.548,1.077-1.782
			c0,0.628,0,1.254,0,2.513c0.724-1.012,1.099-1.536,1.554-2.172C242.062,393.727,241.6,393.657,241.139,393.586z"/>
		<path d="M213.802,430.903c0.621,0.414,0.988,0.659,1.518,1.013c0.33-1.299,2.238-1.737,1.598-3.511
			c-0.038-0.105,0.181-0.409,0.334-0.46c2.803-0.931,2.898-3.987,4.511-5.821c0.926,0.075,1.409,0.435,1.009,1.352
			c-0.238,0.545-0.548,1.067-0.885,1.557c-1.362,1.979-3.058,3.716-3.697,6.189c-0.192,0.743-1.416,1.22-2.352,1.967
			C215.199,432.567,213.587,432.926,213.802,430.903z"/>
		<path d="M228.929,414.184c-0.746-2.412,0.54-2.936,2.178-3.228C230.467,411.904,229.828,412.852,228.929,414.184z"/>
		<path d="M244.084,389.095c0.753-0.327,1.507-0.653,2.977-1.291c-0.753,1.163-1.065,1.861-1.585,2.327
			c-0.176,0.158-0.878-0.271-1.34-0.433C244.119,389.498,244.102,389.296,244.084,389.095z"/>
		<path d="M597.628,1011.786c-0.818-0.108-1.637-0.216-2.876-0.38C596.582,1010.471,596.582,1010.471,597.628,1011.786z"/>
		<path d="M253.023,852.873c0.738,0.312,1.475,0.623,2.687,1.135c-1.777,0.916-2.265-0.033-2.944-0.496
			C252.851,853.299,252.937,853.086,253.023,852.873z"/>
		<path d="M155.761,657.966c0,0.632,0,1.263,0,1.895c-0.149,0.02-0.298,0.039-0.447,0.059c-0.113-0.649-0.225-1.299-0.338-1.948
			C155.238,657.97,155.499,657.968,155.761,657.966z"/>
		<path d="M154.565,645.562c0.111,0.675,0.222,1.35,0.332,2.025c-0.171,0.039-0.341,0.077-0.511,0.116
			c-0.141-0.648-0.282-1.296-0.424-1.944C154.163,645.693,154.364,645.628,154.565,645.562z"/>
		<path d="M247.404,387.205c0.571-0.519,1.143-1.037,1.714-1.556c0.119,0.125,0.237,0.251,0.356,0.376
			c-0.569,0.522-1.138,1.043-1.708,1.565C247.645,387.462,247.525,387.334,247.404,387.205z"/>
		<path d="M222.626,419.605c0.216-0.499,0.432-0.998,0.647-1.497c0.163,0.077,0.325,0.154,0.488,0.231
			c-0.248,0.483-0.496,0.967-0.744,1.45C222.887,419.728,222.757,419.667,222.626,419.605z"/>
		<path d="M178.772,748.666c-0.182,0.718-0.363,1.435-0.631,2.494c-0.872-1.447-0.398-2.041,0.71-2.406
			C178.85,748.752,178.772,748.666,178.772,748.666z"/>
		<path d="M225.904,417.159c0.264-0.398,0.528-0.797,0.792-1.195c0.146,0.083,0.293,0.166,0.439,0.249
			c-0.217,0.44-0.434,0.879-0.651,1.319C226.291,417.408,226.097,417.284,225.904,417.159z"/>
		<path d="M590.378,1011.027c0.47-0.031,0.94-0.061,1.568-0.102c-0.87,1.089-0.87,1.089-1.494,0.021
			C590.453,1010.946,590.378,1011.027,590.378,1011.027z"/>
		<path d="M172.95,739.773c-0.154-0.524-0.308-1.047-0.461-1.571c0.144-0.041,0.288-0.082,0.432-0.123
			c0.138,0.529,0.276,1.059,0.413,1.588C173.206,739.702,173.078,739.737,172.95,739.773z"/>
		<path d="M162.916,703.231c-0.135,0.055-0.333,0.191-0.393,0.145c-0.113-0.086-0.148-0.276-0.215-0.423
			c0.142-0.061,0.284-0.123,0.426-0.184C162.795,702.923,162.855,703.076,162.916,703.231z"/>
		<path d="M191.424,774.879c-0.222,0.276-0.364,0.604-0.528,0.616c-0.196,0.015-0.518-0.203-0.587-0.392
			c-0.052-0.143,0.185-0.546,0.334-0.57C190.849,774.501,191.094,774.719,191.424,774.879z"/>
		<path d="M241.329,840.745c-0.544,0.117-1.089,0.235-1.633,0.352c0.007-0.224,0.015-0.448,0.022-0.672
			c0.553,0.126,1.107,0.251,1.665,0.382C241.387,840.813,241.329,840.745,241.329,840.745z"/>
		<path d="M186.304,766.315c-0.051,0.063-0.098,0.174-0.153,0.179c-0.074,0.006-0.154-0.071-0.232-0.112
			c0.084-0.098,0.168-0.196,0.252-0.294C186.215,766.164,186.259,766.239,186.304,766.315z"/>
		<path d="M153.604,626.516c0.241,0.517,0.423,0.757,0.372,0.826c-0.159,0.215-0.406,0.365-0.618,0.54
			c-0.069-0.169-0.223-0.358-0.188-0.501C153.234,627.119,153.41,626.886,153.604,626.516z"/>
		<path d="M174.906,523.555c-0.585,0.116-1.17,0.232-1.755,0.348c0.001-0.172,0.001-0.344,0.002-0.515
			c0.556,0.077,1.112,0.153,1.679,0.221C174.843,523.598,174.906,523.555,174.906,523.555z"/>
		<path d="M227.148,414.198c-0.156-0.097-0.385-0.161-0.446-0.3c-0.058-0.13,0.061-0.338,0.103-0.511
			c0.195,0.105,0.425,0.178,0.565,0.333C227.415,413.77,227.229,414.032,227.148,414.198z"/>
		<path d="M335.699,1014.853c-0.079,0.121-0.147,0.253-0.247,0.353c-0.027,0.027-0.217-0.036-0.221-0.069
			c-0.015-0.14,0.012-0.285,0.023-0.428C335.403,1014.756,335.551,1014.804,335.699,1014.853z"/>
		<path d="M342.988,1026.017c0.004,0.089,0.008,0.177,0.012,0.265c-0.092-0.071-0.203-0.13-0.268-0.221
			c-0.026-0.037,0.049-0.145,0.079-0.222C342.87,1025.899,342.929,1025.958,342.988,1026.017z"/>
		<path d="M969.192,351.971c-0.506,0.297-1.013,0.595-1.182,0.694c-2.181-1.11-4.128-2.019-5.985-3.084
			c-0.839-0.481-1.466-1.32-2.253-1.911c-1.113-0.836-1.64-2.587-3.524-2.27c-0.228,0.038-0.549-0.222-0.765-0.414
			c-2.705-2.411-5.635-4.626-8.018-7.324c-1.86-2.106-3.083-4.79-4.478-7.28c-0.273-0.488-0.039-1.26-0.039-2.588
			c1.854,2.521,2.978,4.987,4.881,6.413c2.737,2.052,4.477,5.245,7.774,6.587c0.445,0.181,0.968,0.4,1.232,0.763
			c1.193,1.641,2.924,2.594,4.474,3.804c2.7,2.109,5.224,4.442,7.823,6.681L969.192,351.971z"/>
		<path d="M937.473,321.865c-0.259-0.388-0.63-0.745-0.743-1.172c-0.092-0.347,0.534-0.657-0.385-0.986
			c-2.49-0.89-4.381-2.456-4.921-5.325c-0.343-1.82-0.991-3.59-1.591-5.352c-0.214-0.628-0.739-1.142-1.036-1.75
			c-0.618-1.266-1.739-2.302-1.311-4.029c0.137-0.552-0.696-1.545-1.32-2.042c-1.138-0.909-2.057-1.552-1.413-3.381
			c0.305-0.866-0.524-2.244-1.067-3.27c-0.925-1.75-1.438-3.388-0.064-4.833c0.395,1.185,0.6,2.572,1.281,3.664
			c1.028,1.65,1.514,3.262,1.068,5.175c-0.081,0.348,0.25,0.793,0.392,1.193c0.308-0.181,0.615-0.362,0.919-0.541
			c0.676,1.209,1.38,2.418,2.03,3.655c0.266,0.507,0.57,1.073,0.581,1.617c0.031,1.434,0.764,2.302,1.785,3.237
			c0.967,0.885,1.829,2.114,2.192,3.351c0.258,0.878,0.065,1.662,1.313,1.582c0.103-0.007,0.35,0.329,0.321,0.459
			c-0.52,2.316,1.601,3.434,2.349,5.169c0.582,1.351,0.457,2.497-0.432,3.612L937.473,321.865z"/>
		<path d="M616.523,176.45c-1.899-1.2-4.015-0.256-6.007-0.6c-1.155-0.199-2.337-0.244-3.508-0.348
			c-1.753-0.155-3.504-0.331-5.26-0.441c-2.868-0.181-5.739-0.308-8.607-0.479c-0.392-0.023-0.853-0.062-1.153-0.275
			c-1.97-1.397-4.235-1.497-6.514-1.623c-0.328-0.018-0.638-0.365-1.334-0.791c0.85-0.459,1.572-1.137,1.906-0.982
			c1.63,0.759,3.268-0.031,4.844,0.251c0.753,0.135,1.405,0.832,2.276,1.385c0.849-1.387,2.132-1.648,3.646-0.668
			c0.571,0.37,1.051,0.528,1.875,0.292c0.594-0.17,1.514,0.802,2.349,1.301c2.439-0.797,4.951-1.312,7.325,0.678
			c0.153-0.295,0.427-1.068,0.561-1.044c0.785,0.139,1.924,0.91,2.229,0.645c1.048-0.912,1.526-0.533,2.091,0.394
			c0.122,0.201,0.506,0.48,0.596,0.427c2.317-1.358,2.303,0.553,2.695,1.895L616.523,176.45z M591.406,172.134
			c-0.13-0.088-0.256-0.185-0.396-0.253c-0.017-0.008-0.171,0.157-0.154,0.201c0.056,0.148,0.161,0.279,0.247,0.416
			C591.204,172.377,591.305,172.257,591.406,172.134z"/>
		<path d="M616.532,176.47c0.38-0.901,0.759-1.802,1.258-2.985c0.936,0.187,1.98,0.333,2.986,0.611
			c1.407,0.388,2.401,0.367,4.61,0.163c1.028-0.095,2.219,0.003,3.123,0.448c2.286,1.125,4.708-0.111,7.08,0.717
			c1.376,0.48,3.138-0.179,4.811,0.193c1.093,0.243,2.426,1.201,3.76-0.133c0.404-0.404,1.838,0.221,3.024,0.411
			c-0.652,1.455-1.135,2.6-2.808,1.36c-0.221-0.164-0.56-0.242-0.842-0.237c-1.547,0.029-2.982,0.196-4.591-0.5
			c-1.23-0.532-3.154-0.16-4.501,0.426c-2.721,1.184-5.283,0.12-7.91-0.005c-3.339-0.158-6.677-0.33-10.013-0.492
			C616.523,176.45,616.532,176.47,616.532,176.47z"/>
		<path d="M963.559,821.907c-0.284-0.263-0.569-0.526-0.947-0.876c0.599-1.488,2.75-1.44,3.058-3.306
			c0.224-1.355,1.239-2.507,2.781-3.076c-1.308,2.242-2.597,4.496-3.949,6.712c-0.162,0.265-0.663,0.324-1.007,0.478
			L963.559,821.907z"/>
		<path d="M969.13,352.042c0.784,0.816,1.569,1.632,2.461,2.56c-2.498,0.299-2.498,0.299-2.404-2.624
			C969.192,351.971,969.13,352.042,969.13,352.042z"/>
		<path d="M937.42,321.902c1.459-0.558,2.645-0.577,2.966,1.983c-1.197-0.849-2.039-1.446-2.897-2.032
			C937.473,321.865,937.42,321.902,937.42,321.902z"/>
		<path d="M942.188,326.562c-0.592-0.33-1.183-0.66-1.775-0.99c0.086-0.148,0.172-0.296,0.259-0.443
			c0.581,0.349,1.162,0.698,1.742,1.047C942.339,326.305,942.263,326.434,942.188,326.562z"/>
		<path d="M378.421,260.451c-0.966,0.827-1.397,1.196-1.882,1.611C376.447,260.687,376.447,260.687,378.421,260.451z"/>
		<path d="M963.495,821.839c-0.012,0.831,0.474,1.911-1.064,2.137c-0.474-1.271,0.79-1.41,1.131-2.065
			C963.559,821.907,963.495,821.839,963.495,821.839z"/>
		<path d="M547.063,179.011c-0.402,0.155-0.652,0.303-0.916,0.333c-0.155,0.018-0.331-0.152-0.498-0.238
			c0.164-0.205,0.305-0.439,0.507-0.594C546.211,178.47,546.45,178.667,547.063,179.011z"/>
		<path d="M358.241,266.96c-0.411,1.033-0.821,2.066-1.232,3.099C355.984,268.455,356.916,267.63,358.241,266.96z"/>
		<path d="M356.306,270.182c-0.59,0.091-1.18,0.181-1.77,0.271c-0.002-0.173-0.004-0.345-0.006-0.518
			c0.576,0.091,1.152,0.182,1.743,0.262C356.29,270.186,356.306,270.182,356.306,270.182z"/>
		<path d="M387.957,243.835c-0.103-0.167-0.237-0.322-0.301-0.503c-0.083-0.234-0.11-0.487-0.161-0.732
			c0.184-0.018,0.513-0.088,0.527-0.047c0.086,0.244,0.138,0.517,0.122,0.774c-0.012,0.186-0.148,0.364-0.238,0.556
			C387.897,243.892,387.957,243.835,387.957,243.835z"/>
		<path d="M1024.723,466.689c0,0.863,0,1.726,0,2.588c-0.645-0.916-1.646-1.908,0.088-2.502
			C1024.809,466.773,1024.723,466.689,1024.723,466.689z"/>
		<path d="M1014.361,433.923c0.049,0.669,0.097,1.338,0.146,2.007c-0.126,0.004-0.253,0.009-0.379,0.013
			c0.075-0.668,0.15-1.336,0.226-2.007C1014.355,433.932,1014.361,433.923,1014.361,433.923z"/>
	</g>
</g>
</svg>
